<svg width="87" height="24" viewBox="0 0 87 24" fill="none" xmlns="http://www.w3.org/2000/svg">
<path d="M0.7 23V1.1H4.96V23H0.7ZM4.36 23V19.25H13.81V23H4.36ZM26.2619 23.57C24.2819 23.57 22.5619 23.22 21.1019 22.52C19.6619 21.82 18.4619 20.91 17.5019 19.79C16.5619 18.65 15.8519 17.43 15.3719 16.13C14.9119 14.81 14.6819 13.54 14.6819 12.32V11.66C14.6819 10.32 14.9219 8.99 15.4019 7.67C15.8819 6.33 16.6019 5.12 17.5619 4.04C18.5419 2.96 19.7519 2.1 21.1919 1.46C22.6319 0.799999 24.3219 0.469999 26.2619 0.469999C28.1819 0.469999 29.8619 0.799999 31.3019 1.46C32.7419 2.1 33.9419 2.96 34.9019 4.04C35.8819 5.12 36.6119 6.33 37.0919 7.67C37.5719 8.99 37.8119 10.32 37.8119 11.66V12.32C37.8119 13.54 37.5719 14.81 37.0919 16.13C36.6319 17.43 35.9219 18.65 34.9619 19.79C34.0219 20.91 32.8219 21.82 31.3619 22.52C29.9219 23.22 28.2219 23.57 26.2619 23.57ZM26.2619 19.61C27.3819 19.61 28.3819 19.41 29.2619 19.01C30.1619 18.61 30.9219 18.06 31.5419 17.36C32.1819 16.64 32.6619 15.83 32.9819 14.93C33.3219 14.01 33.4919 13.04 33.4919 12.02C33.4919 10.92 33.3219 9.91 32.9819 8.99C32.6619 8.07 32.1819 7.27 31.5419 6.59C30.9219 5.91 30.1619 5.38 29.2619 5C28.3619 4.62 27.3619 4.43 26.2619 4.43C25.1419 4.43 24.1319 4.62 23.2319 5C22.3319 5.38 21.5619 5.91 20.9219 6.59C20.3019 7.27 19.8219 8.07 19.4819 8.99C19.1619 9.91 19.0019 10.92 19.0019 12.02C19.0019 13.04 19.1619 14.01 19.4819 14.93C19.8219 15.83 20.3019 16.64 20.9219 17.36C21.5619 18.06 22.3319 18.61 23.2319 19.01C24.1319 19.41 25.1419 19.61 26.2619 19.61ZM51.2289 23.57C49.3489 23.57 47.6889 23.26 46.2489 22.64C44.8289 22 43.6289 21.15 42.6489 20.09C41.6889 19.01 40.9589 17.8 40.4589 16.46C39.9789 15.1 39.7389 13.69 39.7389 12.23V11.57C39.7389 10.19 39.9789 8.84 40.4589 7.52C40.9389 6.2 41.6389 5.01 42.5589 3.95C43.4989 2.89 44.6489 2.05 46.0089 1.43C47.3889 0.789999 48.9689 0.469999 50.7489 0.469999C52.6689 0.469999 54.3689 0.829999 55.8489 1.55C57.3289 2.25 58.5189 3.24 59.4189 4.52C60.3189 5.78 60.8489 7.25 61.0089 8.93H56.7189C56.5789 7.99 56.2289 7.19 55.6689 6.53C55.1089 5.85 54.3989 5.33 53.5389 4.97C52.6989 4.61 51.7689 4.43 50.7489 4.43C49.7289 4.43 48.7989 4.61 47.9589 4.97C47.1389 5.33 46.4389 5.84 45.8589 6.5C45.2789 7.16 44.8289 7.95 44.5089 8.87C44.2089 9.79 44.0589 10.81 44.0589 11.93C44.0589 13.15 44.2289 14.24 44.5689 15.2C44.9089 16.16 45.3889 16.98 46.0089 17.66C46.6289 18.32 47.3789 18.83 48.2589 19.19C49.1389 19.53 50.1289 19.7 51.2289 19.7C52.6889 19.7 53.9689 19.4 55.0689 18.8C56.1689 18.18 56.9689 17.38 57.4689 16.4L56.7189 19.85V14.21H60.6489V19.07C59.7089 20.49 58.4289 21.6 56.8089 22.4C55.1889 23.18 53.3289 23.57 51.2289 23.57ZM50.5389 15.05V11.87H62.4789V15.05H50.5389ZM75.292 23.57C73.312 23.57 71.592 23.22 70.132 22.52C68.692 21.82 67.492 20.91 66.532 19.79C65.592 18.65 64.882 17.43 64.402 16.13C63.942 14.81 63.712 13.54 63.712 12.32V11.66C63.712 10.32 63.952 8.99 64.432 7.67C64.912 6.33 65.632 5.12 66.592 4.04C67.572 2.96 68.782 2.1 70.222 1.46C71.662 0.799999 73.352 0.469999 75.292 0.469999C77.212 0.469999 78.892 0.799999 80.332 1.46C81.772 2.1 82.972 2.96 83.932 4.04C84.912 5.12 85.642 6.33 86.122 7.67C86.602 8.99 86.842 10.32 86.842 11.66V12.32C86.842 13.54 86.602 14.81 86.122 16.13C85.662 17.43 84.952 18.65 83.992 19.79C83.052 20.91 81.852 21.82 80.392 22.52C78.952 23.22 77.252 23.57 75.292 23.57ZM75.292 19.61C76.412 19.61 77.412 19.41 78.292 19.01C79.192 18.61 79.952 18.06 80.572 17.36C81.212 16.64 81.692 15.83 82.012 14.93C82.352 14.01 82.522 13.04 82.522 12.02C82.522 10.92 82.352 9.91 82.012 8.99C81.692 8.07 81.212 7.27 80.572 6.59C79.952 5.91 79.192 5.38 78.292 5C77.392 4.62 76.392 4.43 75.292 4.43C74.172 4.43 73.162 4.62 72.262 5C71.362 5.38 70.592 5.91 69.952 6.59C69.332 7.27 68.852 8.07 68.512 8.99C68.192 9.91 68.032 10.92 68.032 12.02C68.032 13.04 68.192 14.01 68.512 14.93C68.852 15.83 69.332 16.64 69.952 17.36C70.592 18.06 71.362 18.61 72.262 19.01C73.162 19.41 74.172 19.61 75.292 19.61Z" fill="#1A1A1A"/>
</svg>
