<svg width="14" height="15" viewBox="0 0 14 15" fill="none" xmlns="http://www.w3.org/2000/svg">
<g clip-path="url(#clip0_1339_9456)">
<path d="M4.65855 7.13158C6.43975 7.13158 7.8837 5.64705 7.8837 3.81579C7.8837 1.98453 6.43975 0.5 4.65855 0.5C2.87735 0.5 1.4334 1.98453 1.4334 3.81579C1.4334 5.64705 2.87735 7.13158 4.65855 7.13158Z" fill="white"/>
<path d="M5.7336 7.86842H3.5835C2.63345 7.86959 1.72263 8.25812 1.05084 8.94879C0.37905 9.63946 0.00113802 10.5759 0 11.5526V13.7632C0 13.9586 0.0755092 14.146 0.209917 14.2842C0.344324 14.4224 0.526619 14.5 0.7167 14.5H3.76913C3.62354 14.1158 3.58628 13.6973 3.66162 13.2923L4.16833 10.6876C4.25149 10.2597 4.45597 9.86664 4.75602 9.558L6.3385 7.93105C6.13895 7.8926 5.93659 7.87164 5.7336 7.86842Z" fill="white"/>
<path d="M13.3722 5.91063C12.9683 5.49725 12.4216 5.26518 11.8517 5.26518C11.2818 5.26518 10.7351 5.49725 10.3312 5.91063L5.77087 10.5999C5.67068 10.7027 5.60235 10.8337 5.57449 10.9764L5.06707 13.5819C5.0458 13.689 5.04799 13.7997 5.07347 13.9058C5.09896 14.012 5.1471 14.111 5.21441 14.1956C5.28172 14.2803 5.36651 14.3485 5.46264 14.3952C5.55876 14.442 5.6638 14.4662 5.77015 14.4661C5.81825 14.466 5.86624 14.4613 5.91349 14.4521L8.44775 13.9304C8.58654 13.9018 8.71397 13.8315 8.81398 13.7285L9.3171 13.2046L13.3722 9.03705C13.7743 8.62182 14 8.05976 14 7.47384C14 6.88792 13.7743 6.32586 13.3722 5.91063Z" fill="white"/>
</g>
<defs>
<clipPath id="clip0_1339_9456">
<rect width="14" height="14" fill="white" transform="translate(0 0.5)"/>
</clipPath>
</defs>
</svg>
