<svg width="17" height="10" viewBox="0 0 17 10" fill="none" xmlns="http://www.w3.org/2000/svg">
<path d="M16.7035 1.33219L9.20353 8.83219C9.13387 8.90192 9.05116 8.95724 8.96011 8.99498C8.86906 9.03273 8.77146 9.05215 8.6729 9.05215C8.57434 9.05215 8.47675 9.03273 8.3857 8.99498C8.29465 8.95724 8.21193 8.90192 8.14228 8.83219L0.642277 1.33219C0.501547 1.19146 0.422485 1.00059 0.422485 0.801564C0.422485 0.602542 0.501547 0.41167 0.642277 0.270939C0.783008 0.130209 0.973879 0.0511475 1.1729 0.0511475C1.37193 0.0511475 1.5628 0.130209 1.70353 0.270939L8.6729 7.24125L15.6423 0.270939C15.712 0.201256 15.7947 0.145981 15.8857 0.108269C15.9768 0.0705572 16.0744 0.0511475 16.1729 0.0511475C16.2714 0.0511475 16.369 0.0705572 16.4601 0.108269C16.5511 0.145981 16.6338 0.201256 16.7035 0.270939C16.7732 0.340622 16.8285 0.423347 16.8662 0.514392C16.9039 0.605437 16.9233 0.703018 16.9233 0.801564C16.9233 0.900111 16.9039 0.997692 16.8662 1.08874C16.8285 1.17978 16.7732 1.26251 16.7035 1.33219Z" fill="#919EAB"/>
</svg>
