<svg width="23" height="23" viewBox="0 0 23 23" fill="none" xmlns="http://www.w3.org/2000/svg">
<g clip-path="url(#clip0_4_3572)">
<path d="M19.5458 22.3561H16.3665C16.2877 22.3561 16.2121 22.3248 16.1563 22.269C16.1005 22.2133 16.0692 22.1377 16.0692 22.0588V10.2195C16.0692 8.91988 15.5529 7.67345 14.6339 6.75446C13.715 5.83547 12.4685 5.31918 11.1689 5.31918C9.86922 5.31918 8.62279 5.83547 7.7038 6.75446C6.78481 7.67345 6.26852 8.91988 6.26852 10.2195V22.0588C6.26852 22.1377 6.2372 22.2133 6.18144 22.269C6.12569 22.3248 6.05007 22.3561 5.97122 22.3561H2.79193C2.71308 22.3561 2.63746 22.3248 2.58171 22.269C2.52595 22.2133 2.49463 22.1377 2.49463 22.0588V10.2195C2.49463 7.91898 3.40852 5.71265 5.03526 4.08592C6.66199 2.45918 8.86832 1.54529 11.1689 1.54529C13.4694 1.54529 15.6758 2.45918 17.3025 4.08592C18.9292 5.71265 19.8431 7.91898 19.8431 10.2195V22.0588C19.8431 22.1377 19.8118 22.2133 19.756 22.269C19.7003 22.3248 19.6247 22.3561 19.5458 22.3561ZM16.6638 21.7615H19.2485V10.2195C19.2485 8.07668 18.3973 6.02159 16.882 4.50636C15.3668 2.99113 13.3117 2.13988 11.1689 2.13988C9.02602 2.13988 6.97093 2.99113 5.4557 4.50636C3.94047 6.02159 3.08922 8.07668 3.08922 10.2195V21.7615H5.67393V10.2195C5.67393 8.76218 6.25286 7.36452 7.28336 6.33402C8.31386 5.30352 9.71152 4.72459 11.1689 4.72459C12.6262 4.72459 14.0239 5.30352 15.0544 6.33402C16.0849 7.36452 16.6638 8.76218 16.6638 10.2195V21.7615Z" fill="#919EAB"/>
<path d="M16.367 22.3564H5.97165C5.91867 22.3564 5.86665 22.3422 5.82097 22.3154C5.77529 22.2885 5.73762 22.25 5.71185 22.2037C5.68608 22.1574 5.67315 22.105 5.6744 22.0521C5.67565 21.9991 5.69103 21.9474 5.71895 21.9024L8.07117 18.1136C8.09784 18.0706 8.13505 18.0351 8.17927 18.0105C8.22349 17.9859 8.27326 17.973 8.32387 17.973H14.0147C14.0653 17.973 14.1151 17.9859 14.1593 18.0105C14.2036 18.0351 14.2408 18.0706 14.2674 18.1136L16.6197 21.9024C16.6476 21.9474 16.663 21.9991 16.6642 22.0521C16.6655 22.105 16.6525 22.1574 16.6268 22.2037C16.601 22.25 16.5633 22.2885 16.5176 22.3154C16.472 22.3422 16.4199 22.3564 16.367 22.3564ZM6.5059 21.7618H15.8327L13.8494 18.5676H8.48917L6.5059 21.7618Z" fill="#919EAB"/>
<path d="M14.014 18.5678H8.32318C8.24433 18.5678 8.16871 18.5365 8.11296 18.4807C8.0572 18.425 8.02588 18.3494 8.02588 18.2705V12.4566C8.02588 11.6231 8.35699 10.8237 8.94636 10.2343C9.53574 9.64495 10.3351 9.31384 11.1686 9.31384C12.0021 9.31384 12.8015 9.64495 13.3909 10.2343C13.9802 10.8237 14.3113 11.6231 14.3113 12.4566V18.2705C14.3113 18.3494 14.28 18.425 14.2243 18.4807C14.1685 18.5365 14.0929 18.5678 14.014 18.5678ZM8.62047 17.9732H13.7167V12.4566C13.7167 11.7808 13.4483 11.1326 12.9704 10.6548C12.4925 10.1769 11.8444 9.90844 11.1686 9.90844C10.4928 9.90844 9.84467 10.1769 9.3668 10.6548C8.88894 11.1326 8.62047 11.7808 8.62047 12.4566V17.9732Z" fill="#919EAB"/>
</g>
<defs>
<clipPath id="clip0_4_3572">
<rect width="22" height="22" fill="white" transform="translate(0.168457 0.950562)"/>
</clipPath>
</defs>
</svg>
