<svg width="21" height="19" viewBox="0 0 21 19" fill="none" xmlns="http://www.w3.org/2000/svg">
<path d="M8.42697 17.1674C8.42697 17.4452 8.34459 17.7167 8.19027 17.9477C8.03594 18.1787 7.81659 18.3587 7.55995 18.465C7.30331 18.5713 7.02091 18.5991 6.74847 18.5449C6.47602 18.4907 6.22577 18.357 6.02934 18.1605C5.83292 17.9641 5.69916 17.7139 5.64496 17.4414C5.59077 17.169 5.61859 16.8866 5.72489 16.6299C5.83119 16.3733 6.01121 16.1539 6.24218 15.9996C6.47314 15.8453 6.74469 15.7629 7.02247 15.7629C7.39497 15.7629 7.75221 15.9109 8.0156 16.1743C8.27899 16.4377 8.42697 16.7949 8.42697 17.1674ZM16.1517 15.7629C15.8739 15.7629 15.6024 15.8453 15.3714 15.9996C15.1404 16.1539 14.9604 16.3733 14.8541 16.6299C14.7478 16.8866 14.72 17.169 14.7742 17.4414C14.8284 17.7139 14.9621 17.9641 15.1586 18.1605C15.355 18.357 15.6052 18.4907 15.8777 18.5449C16.1501 18.5991 16.4325 18.5713 16.6892 18.465C16.9458 18.3587 17.1652 18.1787 17.3195 17.9477C17.4738 17.7167 17.5562 17.4452 17.5562 17.1674C17.5562 16.7949 17.4082 16.4377 17.1448 16.1743C16.8814 15.9109 16.5242 15.7629 16.1517 15.7629ZM20.3344 4.73324L17.8301 12.8714C17.6989 13.3028 17.4321 13.6805 17.0694 13.9483C16.7067 14.2162 16.2673 14.36 15.8164 14.3584H7.37974C6.92238 14.3567 6.47788 14.2069 6.11281 13.9314C5.74773 13.6559 5.48173 13.2695 5.35463 12.8302L2.17872 1.71797H0.702247C0.516 1.71797 0.33738 1.64398 0.205683 1.51229C0.0739866 1.38059 0 1.20197 0 1.01572C0 0.829476 0.0739866 0.650857 0.205683 0.51916C0.33738 0.387463 0.516 0.313477 0.702247 0.313477H2.17872C2.48368 0.314488 2.78011 0.414239 3.02364 0.597797C3.26717 0.781355 3.44471 1.03885 3.52967 1.33173L4.24157 3.82471H19.6629C19.7728 3.82467 19.8812 3.85042 19.9793 3.89989C20.0774 3.94937 20.1626 4.02118 20.2279 4.10955C20.2932 4.19792 20.3369 4.30039 20.3554 4.40872C20.3739 4.51704 20.3667 4.6282 20.3344 4.73324ZM18.7123 5.22921H4.64273L6.7047 12.4448C6.74666 12.5915 6.83522 12.7205 6.95701 12.8123C7.0788 12.9042 7.22719 12.9539 7.37974 12.9539H15.8164C15.9666 12.954 16.1129 12.9058 16.2338 12.8166C16.3547 12.7273 16.4437 12.6016 16.4879 12.458L18.7123 5.22921Z" fill="#92959C"/>
</svg>
