<svg width="22" height="19" viewBox="0 0 22 19" fill="none" xmlns="http://www.w3.org/2000/svg">
<path d="M9.2131 17.1674C9.2131 17.4452 9.13073 17.7167 8.9764 17.9477C8.82207 18.1787 8.60272 18.3587 8.34608 18.465C8.08944 18.5713 7.80705 18.5991 7.5346 18.5449C7.26216 18.4907 7.0119 18.357 6.81548 18.1605C6.61906 17.9641 6.48529 17.7139 6.4311 17.4414C6.3769 17.169 6.40472 16.8866 6.51102 16.6299C6.61732 16.3733 6.79734 16.1539 7.02831 15.9996C7.25928 15.8453 7.53082 15.7629 7.8086 15.7629C8.1811 15.7629 8.53834 15.9109 8.80173 16.1743C9.06513 16.4377 9.2131 16.7949 9.2131 17.1674ZM16.9378 15.7629C16.66 15.7629 16.3885 15.8453 16.1575 15.9996C15.9266 16.1539 15.7465 16.3733 15.6402 16.6299C15.5339 16.8866 15.5061 17.169 15.5603 17.4414C15.6145 17.7139 15.7483 17.9641 15.9447 18.1605C16.1411 18.357 16.3914 18.4907 16.6638 18.5449C16.9363 18.5991 17.2187 18.5713 17.4753 18.465C17.7319 18.3587 17.9513 18.1787 18.1056 17.9477C18.2599 17.7167 18.3423 17.4452 18.3423 17.1674C18.3423 16.7949 18.1943 16.4377 17.9309 16.1743C17.6676 15.9109 17.3103 15.7629 16.9378 15.7629ZM21.1206 4.73324L18.6162 12.8714C18.485 13.3028 18.2183 13.6805 17.8555 13.9483C17.4928 14.2162 17.0534 14.36 16.6025 14.3584H8.16587C7.70851 14.3567 7.26401 14.2069 6.89894 13.9314C6.53386 13.6559 6.26786 13.2695 6.14077 12.8302L2.96485 1.71797H1.48838C1.30213 1.71797 1.12351 1.64398 0.991816 1.51229C0.860119 1.38059 0.786133 1.20197 0.786133 1.01572C0.786133 0.829476 0.860119 0.650857 0.991816 0.51916C1.12351 0.387463 1.30213 0.313477 1.48838 0.313477H2.96485C3.26981 0.314488 3.56624 0.414239 3.80978 0.597797C4.05331 0.781355 4.23084 1.03885 4.3158 1.33173L5.02771 3.82471H20.4491C20.5589 3.82467 20.6673 3.85042 20.7654 3.89989C20.8636 3.94937 20.9487 4.02118 21.014 4.10955C21.0794 4.19792 21.123 4.30039 21.1415 4.40872C21.16 4.51704 21.1529 4.6282 21.1206 4.73324ZM19.4984 5.22921H5.42886L7.49084 12.4448C7.53279 12.5915 7.62136 12.7205 7.74315 12.8123C7.86494 12.9042 8.01333 12.9539 8.16587 12.9539H16.6025C16.7528 12.954 16.8991 12.9058 17.02 12.8166C17.1408 12.7273 17.2299 12.6016 17.274 12.458L19.4984 5.22921Z" fill="white"/>
</svg>
