<svg width="22" height="22" viewBox="0 0 22 22" fill="none" xmlns="http://www.w3.org/2000/svg">
<path d="M19.3774 21.4055H16.1981C16.1192 21.4055 16.0436 21.3742 15.9878 21.3185C15.9321 21.2627 15.9008 21.1871 15.9008 21.1082V9.26897C15.9008 7.96932 15.3845 6.72289 14.4655 5.8039C13.5465 4.8849 12.3001 4.36862 11.0004 4.36862C9.70076 4.36862 8.45434 4.8849 7.53534 5.8039C6.61635 6.72289 6.10006 7.96932 6.10006 9.26897V21.1082C6.10006 21.1871 6.06874 21.2627 6.01299 21.3185C5.95723 21.3742 5.88161 21.4055 5.80277 21.4055H2.62347C2.54462 21.4055 2.469 21.3742 2.41325 21.3185C2.35749 21.2627 2.32617 21.1871 2.32617 21.1082V9.26897C2.32617 6.96842 3.24006 4.76209 4.8668 3.13535C6.49354 1.50862 8.69986 0.594727 11.0004 0.594727C13.301 0.594727 15.5073 1.50862 17.134 3.13535C18.7608 4.76209 19.6747 6.96842 19.6747 9.26897V21.1082C19.6747 21.1871 19.6433 21.2627 19.5876 21.3185C19.5318 21.3742 19.4562 21.4055 19.3774 21.4055ZM16.4954 20.8109H19.0801V9.26897C19.0801 7.12611 18.2288 5.07102 16.7136 3.5558C15.1984 2.04057 13.1433 1.18932 11.0004 1.18932C8.85756 1.18932 6.80247 2.04057 5.28724 3.5558C3.77201 5.07102 2.92077 7.12611 2.92077 9.26897V20.8109H5.50547V9.26897C5.50547 7.81162 6.0844 6.41396 7.1149 5.38346C8.1454 4.35295 9.54306 3.77402 11.0004 3.77402C12.4578 3.77402 13.8554 4.35295 14.8859 5.38346C15.9164 6.41396 16.4954 7.81162 16.4954 9.26897V20.8109Z" fill="white"/>
<path d="M16.1985 21.4058H5.8032C5.75021 21.4058 5.69819 21.3917 5.65251 21.3648C5.60684 21.338 5.56916 21.2994 5.54339 21.2531C5.51762 21.2068 5.50469 21.1545 5.50594 21.1015C5.50719 21.0485 5.52257 20.9969 5.55049 20.9518L7.90271 17.1631C7.92938 17.1201 7.96659 17.0846 8.01081 17.06C8.05503 17.0354 8.10481 17.0225 8.15541 17.0225H13.8463C13.8969 17.0225 13.9467 17.0354 13.9909 17.06C14.0351 17.0846 14.0723 17.1201 14.099 17.1631L16.4512 20.9518C16.4791 20.9969 16.4945 21.0485 16.4957 21.1015C16.497 21.1545 16.4841 21.2068 16.4583 21.2531C16.4325 21.2994 16.3949 21.338 16.3492 21.3648C16.3035 21.3917 16.2515 21.4058 16.1985 21.4058ZM6.33744 20.8112H15.6643L13.681 17.6171H8.32071L6.33744 20.8112Z" fill="white"/>
<path d="M13.8456 17.6173H8.15472C8.07587 17.6173 8.00025 17.5859 7.9445 17.5302C7.88874 17.4744 7.85742 17.3988 7.85742 17.32V11.506C7.85742 10.6725 8.18853 9.87314 8.77791 9.28377C9.36728 8.69439 10.1666 8.36328 11.0002 8.36328C11.8337 8.36328 12.633 8.69439 13.2224 9.28377C13.8118 9.87314 14.1429 10.6725 14.1429 11.506V17.32C14.1429 17.3988 14.1116 17.4744 14.0558 17.5302C14.0001 17.5859 13.9244 17.6173 13.8456 17.6173ZM8.45202 17.0227H13.5483V11.506C13.5483 10.8302 13.2798 10.1821 12.802 9.70421C12.3241 9.22634 11.676 8.95788 11.0002 8.95788C10.3243 8.95788 9.67622 9.22634 9.19835 9.70421C8.72048 10.1821 8.45202 10.8302 8.45202 11.506V17.0227Z" fill="white"/>
</svg>
