<svg width="21" height="18" viewBox="0 0 21 18" fill="none" xmlns="http://www.w3.org/2000/svg">
<path d="M14.6971 0.572266C12.8844 0.572266 11.2973 1.35176 10.308 2.66935C9.31873 1.35176 7.73165 0.572266 5.91898 0.572266C4.47606 0.573892 3.0927 1.14781 2.07241 2.16811C1.05211 3.18841 0.478189 4.57176 0.476562 6.01468C0.476563 12.1593 9.58734 17.133 9.97533 17.3384C10.0776 17.3934 10.1919 17.4222 10.308 17.4222C10.4241 17.4222 10.5385 17.3934 10.6407 17.3384C11.0287 17.133 20.1395 12.1593 20.1395 6.01468C20.1379 4.57176 19.5639 3.18841 18.5436 2.16811C17.5233 1.14781 16.14 0.573892 14.6971 0.572266ZM10.308 15.9164C8.70514 14.9824 1.88106 10.7276 1.88106 6.01468C1.88245 4.94419 2.30832 3.91793 3.06528 3.16098C3.82223 2.40402 4.84848 1.97815 5.91898 1.97676C7.62632 1.97676 9.05978 2.88617 9.65844 4.34684C9.71135 4.47564 9.80136 4.58581 9.91702 4.66334C10.0327 4.74087 10.1688 4.78226 10.308 4.78226C10.4473 4.78226 10.5834 4.74087 10.699 4.66334C10.8147 4.58581 10.9047 4.47564 10.9576 4.34684C11.5563 2.88354 12.9897 1.97676 14.6971 1.97676C15.7676 1.97815 16.7938 2.40402 17.5508 3.16098C18.3077 3.91793 18.7336 4.94419 18.735 6.01468C18.735 10.7206 11.9091 14.9815 10.308 15.9164Z" fill="white"/>
</svg>
