<svg width="56" height="57" viewBox="0 0 56 57" fill="none" xmlns="http://www.w3.org/2000/svg">
<g clip-path="url(#clip0_1342_10322)">
<path d="M56 28.502C56 13.0363 43.4656 0.501953 28 0.501953C12.5344 0.501953 0 13.0363 0 28.502C0 43.9676 12.5344 56.502 28 56.502C28.1641 56.502 28.3281 56.502 28.4922 56.491V34.7035H22.4766V27.6926H28.4922V22.5301C28.4922 16.5473 32.1453 13.2879 37.4828 13.2879C40.0422 13.2879 42.2406 13.4738 42.875 13.5613V19.8176H39.2C36.3016 19.8176 35.7328 21.1957 35.7328 23.2191V27.6816H42.6781L41.7703 34.6926H35.7328V55.4191C47.4359 52.0613 56 41.2879 56 28.502Z" fill="#9042FB"/>
</g>
<defs>
<clipPath id="clip0_1342_10322">
<rect width="56" height="56" fill="white" transform="translate(0 0.501953)"/>
</clipPath>
</defs>
</svg>
