<svg width="25" height="25" viewBox="0 0 25 25" fill="none" xmlns="http://www.w3.org/2000/svg">
<path d="M23.9243 9.69424C23.0857 7.11364 20.3039 5.69642 17.7235 6.53473C17.3826 6.64549 17.0375 6.79868 16.6965 6.98848C16.7716 6.60556 16.8107 6.22995 16.8107 5.87154C16.8107 3.13184 14.9175 0.950562 12.2178 0.950562C9.51407 0.950562 7.52624 3.13667 7.52624 5.87154C7.52624 6.2299 7.56529 6.60551 7.64043 6.98848C7.29936 6.79873 6.95427 6.64549 6.6134 6.53473C4.03312 5.69628 1.25118 7.11364 0.412634 9.69424C-0.437771 12.3116 1.00917 15.2265 3.57215 16.0593C3.91302 16.1701 4.28221 16.2489 4.66968 16.2959C4.38379 16.5616 4.13151 16.8425 3.9208 17.1324C2.32588 19.3277 2.81427 22.4112 5.00943 24.0061C7.20355 25.6003 10.0534 25.1198 11.6535 22.9174C11.8642 22.6274 12.0533 22.3006 12.2177 21.9466C12.3821 22.3007 12.5713 22.6274 12.782 22.9174C14.3842 25.1228 17.138 25.5969 19.3274 24.0061C21.5226 22.4111 22.011 19.3276 20.4161 17.1324C20.2055 16.8424 19.953 16.5616 19.6672 16.2958C20.0546 16.2489 20.424 16.17 20.7649 16.0593C23.3278 15.2265 24.7747 12.3117 23.9243 9.69424ZM12.2178 2.35658C14.0644 2.35658 15.4047 3.83482 15.4047 5.87154C15.4047 6.78823 15.0459 7.91843 14.4451 8.89484C14.3748 9.00882 14.3386 9.14058 14.3409 9.27448L13.6089 10.5414C13.39 10.4467 13.1505 10.3732 12.9114 10.3245V7.44185C12.9114 7.05364 12.606 6.73887 12.2178 6.73887C11.8295 6.73887 11.5148 7.05364 11.5148 7.44185V10.3246C11.273 10.3741 11.0372 10.4491 10.8113 10.5484L9.99407 9.20984C9.98565 9.09817 9.95058 8.99015 9.89179 8.89484C9.29094 7.91843 8.93221 6.78823 8.93221 5.87154C8.93225 3.86768 10.3447 2.35658 12.2178 2.35658ZM4.00659 14.7221C2.20007 14.1351 1.14548 11.9887 1.74979 10.1287C2.34876 8.28542 4.33551 7.27306 6.17896 7.87188C6.93571 8.11779 7.76197 8.67092 8.45296 9.38388L9.66022 11.3613C9.46761 11.5657 9.30007 11.7923 9.16115 12.0364L6.41769 11.1451C6.04813 11.025 5.6518 11.2272 5.53185 11.5964C5.4118 11.9657 5.61398 12.3622 5.98316 12.4822L8.72558 13.3733C8.6938 13.6555 8.69596 13.9087 8.72732 14.1779L6.97138 14.7905C5.91899 15.0114 4.82465 14.9879 4.00659 14.7221ZM11.5147 19.1028C11.4238 20.2386 11.0514 21.3542 10.5161 22.091C9.37208 23.6655 7.40038 24.0053 5.83588 22.8686C4.26791 21.7293 3.91912 19.5269 5.05832 17.9588C5.98912 16.6776 7.60588 16.0954 7.72851 16.0155L9.16813 15.5133C9.2972 15.7384 9.45069 15.9487 9.62582 16.1402L7.93011 18.4742C7.70188 18.7883 7.77154 19.228 8.0856 19.4561C8.39952 19.6843 8.83921 19.6148 9.06754 19.3007L10.7628 16.9673C11.0033 17.0775 11.2555 17.1599 11.5146 17.213L11.5147 19.1028ZM12.2178 15.8778C11.0549 15.8778 10.1088 14.9317 10.1088 13.7688C10.1088 12.6059 11.0548 11.6598 12.2178 11.6598C13.3806 11.6598 14.3268 12.6059 14.3268 13.7688C14.3268 14.9317 13.3806 15.8778 12.2178 15.8778ZM18.501 22.8686C16.8853 24.0425 15.0261 23.6141 13.9194 22.091C13.3841 21.3542 13.0023 20.2386 12.9113 19.1028V17.2131C13.1738 17.1595 13.4347 17.076 13.6726 16.9673L15.3678 19.3007C15.596 19.6148 16.0357 19.6844 16.3498 19.4562C16.6639 19.228 16.7335 18.7884 16.5052 18.4743L14.8096 16.1403C14.9832 15.9504 15.1356 15.742 15.264 15.519L16.5743 15.9911C16.7359 16.1109 18.3342 16.6589 19.2785 17.9588C20.4178 19.5269 20.069 21.7293 18.501 22.8686ZM17.419 14.8009L15.7073 14.1842C15.7401 13.9076 15.7413 13.6527 15.7099 13.3733L18.4523 12.4822C18.8215 12.3622 19.0236 11.9656 18.9036 11.5963C18.7836 11.2271 18.387 11.025 18.0177 11.145L15.2743 12.0364C15.1329 11.7881 14.962 11.5578 14.7651 11.3507L15.9262 9.34123C16.6085 8.64902 17.4164 8.11282 18.1579 7.87188C20.0011 7.27306 21.9881 8.28537 22.5871 10.1286C23.1914 11.9886 22.1368 14.1351 20.3303 14.7221H20.3303C19.526 14.9834 18.4549 15.01 17.419 14.8009Z" fill="#919EAB"/>
</svg>
