<svg width="20" height="18" viewBox="0 0 20 18" fill="none" xmlns="http://www.w3.org/2000/svg">
<path d="M14.2205 0.572266C12.4078 0.572266 10.8208 1.35176 9.83146 2.66935C8.84217 1.35176 7.25509 0.572266 5.44242 0.572266C3.9995 0.573892 2.61614 1.14781 1.59584 2.16811C0.575544 3.18841 0.00162635 4.57176 0 6.01468C0 12.1593 9.11078 17.133 9.49877 17.3384C9.60103 17.3934 9.71534 17.4222 9.83146 17.4222C9.94758 17.4222 10.0619 17.3934 10.1641 17.3384C10.5521 17.133 19.6629 12.1593 19.6629 6.01468C19.6613 4.57176 19.0874 3.18841 18.0671 2.16811C17.0468 1.14781 15.6634 0.573892 14.2205 0.572266ZM9.83146 15.9164C8.22858 14.9824 1.40449 10.7276 1.40449 6.01468C1.40589 4.94419 1.83176 3.91793 2.58871 3.16098C3.34567 2.40402 4.37192 1.97815 5.44242 1.97676C7.14975 1.97676 8.58322 2.88617 9.18188 4.34684C9.23479 4.47564 9.32479 4.58581 9.44046 4.66334C9.55612 4.74087 9.69222 4.78226 9.83146 4.78226C9.9707 4.78226 10.1068 4.74087 10.2225 4.66334C10.3381 4.58581 10.4281 4.47564 10.481 4.34684C11.0797 2.88354 12.5132 1.97676 14.2205 1.97676C15.291 1.97815 16.3173 2.40402 17.0742 3.16098C17.8312 3.91793 18.257 4.94419 18.2584 6.01468C18.2584 10.7206 11.4326 14.9815 9.83146 15.9164Z" fill="#92959C"/>
</svg>
