<svg width="56" height="57" viewBox="0 0 56 57" fill="none" xmlns="http://www.w3.org/2000/svg">
<g clip-path="url(#clip0_1342_10324)">
<path d="M28 0.433594C12.5352 0.433594 0 12.9706 0 28.4336C0 43.8966 12.5352 56.4336 28 56.4336C43.463 56.4336 56 43.8966 56 28.4336C56 12.9706 43.4647 0.433594 28 0.433594ZM28.3027 43.4766C19.992 43.4766 13.2598 36.7443 13.2598 28.4336C13.2598 20.1228 19.992 13.3906 28.3027 13.3906C32.3645 13.3906 35.7595 14.8868 38.3617 17.3106L34.1215 21.5508V21.5421C32.543 20.0371 30.5393 19.2671 28.3027 19.2671C23.3398 19.2671 19.306 23.4601 19.306 28.4231C19.306 33.3861 23.3398 37.5896 28.3027 37.5896C32.8055 37.5896 35.8715 35.0136 36.5015 31.4786H28.3027V25.6108H42.4515C42.6453 26.6526 42.7426 27.71 42.742 28.7696C42.742 37.3656 36.988 43.4766 28.3027 43.4766Z" fill="#9042FB"/>
</g>
<defs>
<clipPath id="clip0_1342_10324">
<rect width="56" height="56" fill="white" transform="translate(0 0.433594)"/>
</clipPath>
</defs>
</svg>
