<svg width="31" height="31" viewBox="0 0 31 31" fill="none" xmlns="http://www.w3.org/2000/svg">
<path d="M2.56738 5.13435C2.56738 3.71665 3.71665 2.56738 5.13435 2.56738H10.2683C11.686 2.56738 12.8352 3.71665 12.8352 5.13435V10.2683C12.8352 11.686 11.686 12.8352 10.2683 12.8352H5.13435C3.71665 12.8352 2.56738 11.686 2.56738 10.2683V5.13435Z" stroke="#050F0F" stroke-width="1.92522" stroke-linejoin="round"/>
<path d="M17.9692 5.13435C17.9692 3.71665 19.1184 2.56738 20.5361 2.56738H25.6701C27.0878 2.56738 28.237 3.71665 28.237 5.13435V10.2683C28.237 11.686 27.0878 12.8352 25.6701 12.8352H20.5361C19.1184 12.8352 17.9692 11.686 17.9692 10.2683V5.13435Z" stroke="#050F0F" stroke-width="1.92522" stroke-linejoin="round"/>
<path d="M2.56738 20.5361C2.56738 19.1184 3.71665 17.9692 5.13435 17.9692H10.2683C11.686 17.9692 12.8352 19.1184 12.8352 20.5361V25.6701C12.8352 27.0878 11.686 28.237 10.2683 28.237H5.13435C3.71665 28.237 2.56738 27.0878 2.56738 25.6701V20.5361Z" stroke="#050F0F" stroke-width="1.92522" stroke-linejoin="round"/>
<path d="M17.9692 20.5361C17.9692 19.1184 19.1184 17.9692 20.5361 17.9692H25.6701C27.0878 17.9692 28.237 19.1184 28.237 20.5361V25.6701C28.237 27.0878 27.0878 28.237 25.6701 28.237H20.5361C19.1184 28.237 17.9692 27.0878 17.9692 25.6701V20.5361Z" stroke="#050F0F" stroke-width="1.92522" stroke-linejoin="round"/>
</svg>
