<svg width="56" height="57" viewBox="0 0 56 57" fill="none" xmlns="http://www.w3.org/2000/svg">
<g clip-path="url(#clip0_1342_10327)">
<path d="M33.3594 28.502C33.3594 31.4619 30.96 33.8613 28 33.8613C25.04 33.8613 22.6406 31.4619 22.6406 28.502C22.6406 25.542 25.04 23.1426 28 23.1426C30.96 23.1426 33.3594 25.542 33.3594 28.502Z" fill="#9042FB"/>
<path d="M40.5334 19.02C40.2758 18.3218 39.8648 17.6899 39.3307 17.1713C38.8121 16.6372 38.1806 16.2262 37.4821 15.9686C36.9155 15.7485 36.0645 15.4866 34.4969 15.4153C32.8011 15.338 32.2927 15.3213 27.9998 15.3213C23.7064 15.3213 23.1979 15.3375 21.5026 15.4149C19.9351 15.4866 19.0836 15.7485 18.5175 15.9686C17.8189 16.2262 17.187 16.6372 16.6688 17.1713C16.1347 17.6899 15.7237 18.3214 15.4656 19.02C15.2456 19.5865 14.9837 20.438 14.9124 22.0056C14.835 23.7009 14.8184 24.2093 14.8184 28.5027C14.8184 32.7957 14.835 33.3041 14.9124 34.9998C14.9837 36.5674 15.2456 37.4185 15.4656 37.985C15.7237 38.6835 16.1343 39.315 16.6683 39.8337C17.187 40.3677 17.8185 40.7787 18.517 41.0364C19.0836 41.2568 19.9351 41.5187 21.5026 41.5901C23.1979 41.6674 23.7059 41.6837 27.9993 41.6837C32.2932 41.6837 32.8016 41.6674 34.4965 41.5901C36.064 41.5187 36.9155 41.2568 37.4821 41.0364C38.8843 40.4955 39.9926 39.3872 40.5334 37.985C40.7535 37.4185 41.0154 36.5674 41.0872 34.9998C41.1645 33.3041 41.1807 32.7957 41.1807 28.5027C41.1807 24.2093 41.1645 23.7009 41.0872 22.0056C41.0158 20.438 40.7539 19.5865 40.5334 19.02ZM27.9998 36.7584C23.4398 36.7584 19.7432 33.0623 19.7432 28.5023C19.7432 23.9423 23.4398 20.2462 27.9998 20.2462C32.5593 20.2462 36.2559 23.9423 36.2559 28.5023C36.2559 33.0623 32.5593 36.7584 27.9998 36.7584ZM36.5823 21.8492C35.5167 21.8492 34.6528 20.9853 34.6528 19.9197C34.6528 18.8542 35.5167 17.9903 36.5823 17.9903C37.6478 17.9903 38.5117 18.8542 38.5117 19.9197C38.5113 20.9853 37.6478 21.8492 36.5823 21.8492Z" fill="#9042FB"/>
<path d="M28 0.501953C12.5384 0.501953 0 13.0403 0 28.502C0 43.9636 12.5384 56.502 28 56.502C43.4616 56.502 56 43.9636 56 28.502C56 13.0403 43.4616 0.501953 28 0.501953ZM43.9811 35.1307C43.9034 36.8422 43.6312 38.0107 43.2339 39.0336C42.3986 41.1933 40.6913 42.9006 38.5316 43.7358C37.5092 44.1332 36.3403 44.4049 34.6292 44.4831C32.9146 44.5613 32.3669 44.5801 28.0004 44.5801C23.6335 44.5801 23.0862 44.5613 21.3713 44.4831C19.6602 44.4049 18.4912 44.1332 17.4688 43.7358C16.3956 43.3321 15.424 42.6993 14.6208 41.8812C13.803 41.0784 13.1703 40.1064 12.7665 39.0336C12.3692 38.0112 12.097 36.8422 12.0193 35.1311C11.9402 33.4161 11.9219 32.8684 11.9219 28.502C11.9219 24.1355 11.9402 23.5878 12.0189 21.8732C12.0966 20.1617 12.3683 18.9932 12.7657 17.9703C13.1694 16.8975 13.8026 15.9255 14.6208 15.1227C15.4236 14.3046 16.3956 13.6718 17.4684 13.2681C18.4912 12.8707 19.6597 12.599 21.3713 12.5208C23.0858 12.4426 23.6335 12.4238 28 12.4238C32.3665 12.4238 32.9142 12.4426 34.6287 12.5212C36.3403 12.599 37.5088 12.8707 38.5316 13.2676C39.6044 13.6714 40.5764 14.3046 41.3796 15.1227C42.1974 15.926 42.8306 16.8975 43.2339 17.9703C43.6317 18.9932 43.9034 20.1617 43.9816 21.8732C44.0598 23.5878 44.0781 24.1355 44.0781 28.502C44.0781 32.8684 44.0598 33.4161 43.9811 35.1307Z" fill="#9042FB"/>
</g>
<defs>
<clipPath id="clip0_1342_10327">
<rect width="56" height="56" fill="white" transform="translate(0 0.501953)"/>
</clipPath>
</defs>
</svg>
