<svg width="22" height="22" viewBox="0 0 22 22" fill="none" xmlns="http://www.w3.org/2000/svg">
<path d="M21.2542 10.0453C21.359 9.76891 21.3951 9.47119 21.3595 9.17774C21.3238 8.88429 21.2175 8.60388 21.0496 8.36061L20.2152 7.15167C20.1394 7.04183 20.0914 6.91529 20.0753 6.78286L19.8982 5.32458C19.8626 5.03116 19.7562 4.75077 19.5883 4.50751C19.4204 4.26425 19.1959 4.06539 18.9342 3.92801L17.6335 3.24533C17.5154 3.18323 17.4141 3.09348 17.3382 2.98374L16.5038 1.77485C16.3359 1.53156 16.1114 1.33269 15.8496 1.19531C15.5879 1.05794 15.2967 0.986171 15.0011 0.986179H13.5322C13.3993 0.986179 13.2669 0.953518 13.1492 0.891777L11.8484 0.209092H11.8484C11.5866 0.0717516 11.2954 0 10.9998 0C10.7042 0 10.4131 0.0717516 10.1513 0.209092L8.85059 0.891736C8.73242 0.953607 8.60104 0.985995 8.46765 0.986138H6.99872C6.70312 0.986139 6.41195 1.05791 6.15021 1.19527C5.88847 1.33264 5.664 1.5315 5.49608 1.77476L4.66154 2.9837C4.58566 3.09342 4.48436 3.18315 4.3663 3.24524L3.06558 3.92793C2.80386 4.06532 2.57939 4.26418 2.41147 4.50745C2.24355 4.75071 2.13719 5.03111 2.10152 5.32454L1.92443 6.78286C1.90828 6.91527 1.86029 7.04181 1.78457 7.15163L0.950204 8.36057C0.782265 8.60384 0.675907 8.88425 0.64027 9.1777C0.604632 9.47115 0.640782 9.76887 0.745611 10.0453L1.26649 11.4188C1.31366 11.5436 1.32997 11.6779 1.31402 11.8104L1.13697 13.2686C1.10134 13.5621 1.1375 13.8598 1.24233 14.1362C1.34716 14.4126 1.51752 14.6594 1.73879 14.8554L2.83833 15.8295C2.93809 15.9181 3.01497 16.0294 3.06242 16.1541L3.58329 17.5276C3.72239 17.8938 3.97561 18.2055 4.30551 18.4167C4.20818 17.9565 4.15917 17.4874 4.15929 17.017V11.8133C4.15929 10.4422 5.27474 9.32671 6.64586 9.32671C7.44261 9.32671 8.20845 9.56867 8.86059 10.0264L9.3606 10.3774C10.3411 11.0657 11.6587 11.0657 12.6391 10.3774L13.1391 10.0264C13.7913 9.56867 14.5571 9.32671 15.3539 9.32671C16.725 9.32671 17.8405 10.4422 17.8405 11.8133V17.017C17.8406 17.4874 17.7916 17.9565 17.6943 18.4167C18.0242 18.2055 18.2774 17.8938 18.4165 17.5276L18.9374 16.1541C18.9848 16.0294 19.0616 15.918 19.1614 15.8295L20.261 14.8554C20.4822 14.6594 20.6526 14.4126 20.7574 14.1362C20.8623 13.8598 20.8984 13.562 20.8628 13.2686L20.6857 11.8103C20.6698 11.6779 20.6861 11.5435 20.7333 11.4188L21.2542 10.0453Z" fill="white"/>
<path d="M15.8211 13.0297C15.4923 12.4621 14.8809 12.1094 14.2255 12.1094C13.5698 12.1094 12.9582 12.4622 12.6296 13.0302C12.491 13.2696 12.5728 13.576 12.8122 13.7145C12.8882 13.7587 12.9746 13.782 13.0625 13.7819C13.2355 13.7819 13.4037 13.6923 13.4965 13.5319C13.6467 13.2723 13.926 13.111 14.2254 13.111C14.5247 13.111 14.8039 13.2722 14.9543 13.5317C15.0929 13.7709 15.3991 13.8528 15.6386 13.7141C15.878 13.5755 15.9597 13.2691 15.8211 13.0297ZM9.37033 13.0297C9.04159 12.4621 8.43015 12.1094 7.77467 12.1094C7.11902 12.1094 6.50745 12.4622 6.17879 13.0302C6.04019 13.2696 6.12201 13.576 6.36139 13.7145C6.43743 13.7587 6.52382 13.782 6.61177 13.7819C6.7847 13.7819 6.95296 13.6923 7.04574 13.5319C7.19592 13.2723 7.47521 13.111 7.77463 13.111C8.07395 13.111 8.35316 13.2722 8.50347 13.5317C8.64207 13.7709 8.94832 13.8528 9.18786 13.7141C9.42728 13.5755 9.50894 13.2691 9.37033 13.0297ZM14.8774 16.0032C14.4625 16.0032 14.1262 16.3396 14.1262 16.7545C14.1262 18.4488 12.7477 19.8273 11.0533 19.8273H10.9467C9.25231 19.8273 7.87382 18.4488 7.87382 16.7545C7.87382 16.3396 7.53745 16.0032 7.12256 16.0032C6.70767 16.0032 6.3713 16.3396 6.3713 16.7545C6.3713 19.2774 8.42377 21.3299 10.9467 21.3299H11.0534C13.5763 21.3299 15.6288 19.2774 15.6288 16.7545C15.6287 16.3396 15.2924 16.0032 14.8774 16.0032Z" fill="white"/>
<path d="M10.9999 17.9276C11.9243 17.9276 12.6736 17.1782 12.6736 16.2538C12.6736 15.3294 11.9243 14.5801 10.9999 14.5801C10.0755 14.5801 9.32617 15.3294 9.32617 16.2538C9.32617 17.1782 10.0755 17.9276 10.9999 17.9276Z" fill="white"/>
</svg>
