<svg width="32" height="31" viewBox="0 0 32 31" fill="none" xmlns="http://www.w3.org/2000/svg">
<path d="M13.1741 7.70117H20.875M13.1741 17.969H20.875M13.1741 12.8351H28.5759M13.1741 23.103H28.5759M4.18973 12.8351H6.7567C7.46554 12.8351 8.04018 12.2605 8.04018 11.5516V8.98465C8.04018 8.27581 7.46554 7.70117 6.7567 7.70117H4.18973C3.48088 7.70117 2.90625 8.27581 2.90625 8.98465V11.5516C2.90625 12.2605 3.48088 12.8351 4.18973 12.8351ZM4.18973 23.103H6.7567C7.46554 23.103 8.04018 22.5283 8.04018 21.8195V19.2525C8.04018 18.5437 7.46554 17.969 6.7567 17.969H4.18973C3.48088 17.969 2.90625 18.5437 2.90625 19.2525V21.8195C2.90625 22.5283 3.48088 23.103 4.18973 23.103Z" stroke="#050F0F" stroke-width="1.92522" stroke-linecap="round"/>
</svg>
