<svg width="22" height="22" viewBox="0 0 22 22" fill="none" xmlns="http://www.w3.org/2000/svg">
<g clip-path="url(#clip0_1360_17175)">
<path d="M21.398 10.2612L11.3949 2.49245V2.30339L13.8699 1.51277C14.1621 1.42683 14.1449 1.01433 13.8527 0.928392L11.1715 0.25808C10.9824 0.206517 10.7934 0.361205 10.7934 0.550267V2.49245L0.876172 10.1925C0.755859 10.2268 0.669922 10.33 0.669922 10.5018V21.519C0.669922 21.6909 0.807422 21.8284 0.962109 21.8284H21.1918C21.3637 21.8284 21.484 21.6909 21.5012 21.5362V10.5018C21.5012 10.3643 21.4152 10.2784 21.398 10.2612ZM7.52773 10.1925H5.00117L10.0371 4.31433L7.52773 10.1925ZM10.7934 4.10808V10.2096H8.18086L10.7934 4.10808ZM11.3949 4.10808C11.6699 4.74402 10.4152 1.83933 14.0074 10.2096H11.3949V4.10808ZM14.6605 10.1925L12.1512 4.31433L17.1871 10.1925H14.6605ZM4.22773 10.1753H1.87305L8.91992 4.69245L4.22773 10.1753ZM4.0043 10.794C3.81523 11.3784 3.26523 11.7565 2.66367 11.7565C2.06211 11.7737 1.51211 11.3784 1.32305 10.794H4.0043ZM7.37305 10.794C7.20117 11.3784 6.65117 11.7909 6.03242 11.7737C5.41367 11.7909 4.86367 11.3956 4.6918 10.794H7.37305ZM10.759 10.794C10.5184 11.5331 9.71055 11.9456 8.97148 11.705C8.5418 11.5675 8.19805 11.2237 8.06055 10.794H10.759ZM11.0684 12.5471C11.3605 13.9393 11.7902 15.3143 12.323 16.6378C12.959 18.305 13.8699 19.8518 15.0043 21.2268H7.47617C8.49023 19.7659 9.29805 18.1846 9.9168 16.5175C10.398 15.2284 10.7934 13.905 11.0684 12.5471ZM14.1277 10.794C13.8871 11.5331 13.0793 11.9456 12.3402 11.705C11.9105 11.5675 11.5668 11.2237 11.4293 10.794H14.1277ZM17.4965 10.794C17.2559 11.5331 16.448 11.9456 15.709 11.705C15.2793 11.5675 14.9355 11.2237 14.798 10.794H17.4965ZM20.8652 10.794C20.6246 11.5331 19.8168 11.9456 19.0777 11.705C18.648 11.5675 18.3043 11.2237 18.1668 10.794H20.8652ZM17.9777 10.1925L13.2684 4.69245L20.3496 10.1925H17.9777ZM11.3949 1.66745V0.928392L12.684 1.25495L11.3949 1.66745ZM5.25898 21.2268L7.9918 13.269C8.04336 13.1143 7.95742 12.9425 7.80273 12.8909C7.64805 12.8393 7.47617 12.9253 7.42461 13.08L4.62305 21.244H3.29961L4.64023 12.8737C4.67461 12.7018 4.5543 12.5471 4.39961 12.53C4.22773 12.4956 4.07305 12.6159 4.05586 12.7706C2.64648 21.6565 2.69805 21.1409 2.71523 21.2268H1.27148V11.8253C1.64961 12.169 2.14805 12.3581 2.66367 12.3581C3.33398 12.3581 3.96992 12.0315 4.34805 11.4815C4.98398 12.4096 6.23867 12.6675 7.18398 12.0315C7.39023 11.894 7.5793 11.705 7.73398 11.4815C8.11211 12.0487 8.74805 12.3753 9.41836 12.3753C9.83086 12.3753 10.2262 12.255 10.5699 12.0315C10.2949 13.4925 9.88242 14.919 9.3668 16.3112C8.28398 19.1643 7.06367 20.8143 6.73711 21.2268H5.25898ZM19.7652 21.2268L18.1324 13.1143C18.098 12.9596 17.9434 12.8393 17.7715 12.8737C17.6168 12.9081 17.4965 13.0628 17.5309 13.2346L19.1465 21.244H17.8918L14.7465 13.0628C14.6777 12.9081 14.5059 12.8393 14.3512 12.8909C14.1965 12.9596 14.1277 13.1315 14.1793 13.269L17.2387 21.2268H15.7949C15.434 20.8487 13.9559 19.1643 12.873 16.4315C12.3059 15.005 11.859 13.5268 11.584 11.9971C11.9277 12.255 12.3574 12.3925 12.7871 12.3925C13.4574 12.3925 14.0934 12.0659 14.4715 11.4987C15.1074 12.4268 16.3793 12.6675 17.3074 12.0315C17.5137 11.894 17.7027 11.705 17.8402 11.4987C18.2184 12.0659 18.8543 12.3925 19.5246 12.3925C20.0402 12.3925 20.5387 12.2034 20.9168 11.8596V21.244H19.7652V21.2268Z" fill="white"/>
</g>
<defs>
<clipPath id="clip0_1360_17175">
<rect width="22" height="22" fill="white"/>
</clipPath>
</defs>
</svg>
