<svg width="26" height="25" viewBox="0 0 26 25" fill="none" xmlns="http://www.w3.org/2000/svg">
<path d="M11.4251 5.01998C11.2459 4.84122 11.0245 4.71048 10.7814 4.63983C10.5383 4.56918 10.2814 4.56089 10.0343 4.61574C9.78713 4.67058 9.55779 4.78679 9.36741 4.95363C9.17704 5.12048 9.03175 5.33259 8.94496 5.57039L3.9379 19.3429C3.85565 19.57 3.82908 19.8135 3.86043 20.0531C3.89177 20.2926 3.98012 20.5211 4.11805 20.7194C4.25598 20.9177 4.43947 21.08 4.65311 21.1927C4.86676 21.3054 5.10432 21.3652 5.34587 21.3671C5.52371 21.3659 5.69998 21.3336 5.8667 21.2717L19.6383 16.2637C19.8761 16.177 20.0883 16.0318 20.2553 15.8415C20.4222 15.6511 20.5385 15.4218 20.5935 15.1747C20.6484 14.9275 20.6402 14.6705 20.5696 14.4274C20.4991 14.1843 20.3684 13.9628 20.1896 13.7835L11.4251 5.01998ZM10.6305 17.9178L7.29184 14.5791L8.54718 11.125L14.0846 16.6624L10.6305 17.9178ZM5.38403 19.8256L6.7195 16.1616L9.0518 18.4939L5.38403 19.8256ZM15.671 16.0863L9.12334 9.53864L10.3634 6.11698L19.085 14.8385L15.671 16.0863ZM16.0525 6.8677C16.0669 6.3518 16.1918 5.84499 16.4188 5.38151C16.9244 4.37133 17.8783 3.8152 19.105 3.8152C19.7441 3.8152 20.1543 3.59675 20.4071 3.12743C20.5402 2.86487 20.6166 2.57723 20.6313 2.28322C20.632 2.08083 20.7132 1.88703 20.8568 1.74445C21.0005 1.60187 21.1949 1.5222 21.3973 1.52296C21.5997 1.52372 21.7935 1.60485 21.936 1.7485C22.0786 1.89215 22.1583 2.08655 22.1575 2.28895C22.1575 3.51567 21.3448 5.34145 19.105 5.34145C18.4659 5.34145 18.0557 5.55989 17.8029 6.02922C17.6698 6.29178 17.5935 6.57941 17.5788 6.87342C17.5784 6.97364 17.5583 7.0728 17.5196 7.16524C17.4809 7.25768 17.4244 7.3416 17.3532 7.4122C17.2821 7.48279 17.1978 7.53869 17.105 7.57669C17.0123 7.6147 16.913 7.63406 16.8128 7.63369C16.7126 7.63331 16.6134 7.6132 16.521 7.5745C16.4285 7.53581 16.3446 7.47928 16.274 7.40815C16.2034 7.33702 16.1475 7.25268 16.1095 7.15995C16.0715 7.06722 16.0521 6.96792 16.0525 6.8677ZM13.7631 3.8152V1.52582C13.7631 1.32343 13.8435 1.12932 13.9867 0.98621C14.1298 0.843096 14.3239 0.762695 14.5263 0.762695C14.7287 0.762695 14.9228 0.843096 15.0659 0.98621C15.209 1.12932 15.2894 1.32343 15.2894 1.52582V3.8152C15.2894 4.01759 15.209 4.2117 15.0659 4.35481C14.9228 4.49792 14.7287 4.57832 14.5263 4.57832C14.3239 4.57832 14.1298 4.49792 13.9867 4.35481C13.8435 4.2117 13.7631 4.01759 13.7631 3.8152ZM23.4606 11.6697C23.5314 11.7406 23.5876 11.8247 23.6259 11.9173C23.6642 12.01 23.6839 12.1092 23.6839 12.2094C23.6838 12.3097 23.664 12.4089 23.6256 12.5015C23.5872 12.5941 23.531 12.6782 23.4601 12.749C23.3892 12.8199 23.305 12.876 23.2124 12.9143C23.1198 12.9527 23.0205 12.9724 22.9203 12.9723C22.8201 12.9723 22.7209 12.9525 22.6283 12.9141C22.5357 12.8757 22.4516 12.8194 22.3807 12.7485L20.8545 11.2223C20.7113 11.0791 20.6309 10.8849 20.6309 10.6824C20.6309 10.4799 20.7113 10.2857 20.8545 10.1425C20.9977 9.99927 21.1919 9.91883 21.3944 9.91883C21.5969 9.91883 21.7911 9.99927 21.9343 10.1425L23.4606 11.6697ZM23.9251 7.59172L21.6357 8.35484C21.4437 8.41885 21.2341 8.40395 21.0531 8.31343C20.8721 8.22292 20.7344 8.06419 20.6704 7.87216C20.6064 7.68014 20.6213 7.47056 20.7118 7.28952C20.8023 7.10848 20.961 6.97082 21.1531 6.90681L23.4424 6.14369C23.6345 6.07968 23.844 6.09457 24.0251 6.18509C24.2061 6.27561 24.3438 6.43434 24.4078 6.62636C24.4718 6.81838 24.4569 7.02797 24.3664 7.209C24.2759 7.39004 24.1171 7.52771 23.9251 7.59172Z" fill="white"/>
</svg>
