<svg width="22" height="22" viewBox="0 0 22 22" fill="none" xmlns="http://www.w3.org/2000/svg">
<g clip-path="url(#clip0_1360_17150)">
<path d="M8.86757 15.6448C8.86757 15.3619 8.75519 15.0906 8.55515 14.8905C8.35511 14.6905 8.0838 14.5781 7.8009 14.5781H3.71379L3.2409 9.84604C3.2269 9.7071 3.18566 9.57229 3.11955 9.44929C3.05344 9.3263 2.96376 9.21753 2.85561 9.12919C2.74747 9.04085 2.62298 8.97469 2.48926 8.93446C2.35555 8.89423 2.21521 8.88074 2.07628 8.89475C1.93735 8.90875 1.80254 8.94999 1.67954 9.0161C1.55654 9.08221 1.44777 9.17189 1.35944 9.28004C1.2711 9.38818 1.20493 9.51267 1.16471 9.64639C1.12448 9.78011 1.11098 9.92044 1.12499 10.0594L1.69388 15.7518C1.70776 15.8913 1.74923 16.0267 1.81589 16.1501C1.88254 16.2734 1.97305 16.3823 2.08215 16.4704L1.40801 19.8403C1.39306 19.9313 1.41401 20.0245 1.46646 20.1003C1.5189 20.1761 1.59874 20.2286 1.68913 20.2467C1.77952 20.2648 1.8734 20.247 1.95097 20.1972C2.02853 20.1474 2.08373 20.0694 2.1049 19.9797L2.75913 16.7115H7.15379L7.80802 19.9826C7.81576 20.0297 7.8329 20.0747 7.85842 20.115C7.88395 20.1554 7.91733 20.1901 7.95657 20.2173C7.99582 20.2444 8.04013 20.2634 8.08686 20.2731C8.13359 20.2827 8.18179 20.2829 8.22859 20.2735C8.27538 20.2642 8.31982 20.2455 8.35924 20.2186C8.39866 20.1917 8.43227 20.1571 8.45805 20.117C8.48383 20.0768 8.50127 20.0319 8.50932 19.9849C8.51737 19.9378 8.51587 19.8896 8.5049 19.8432L7.87735 16.7051C8.1459 16.6863 8.39739 16.5666 8.58113 16.3698C8.76488 16.1731 8.86723 15.914 8.86757 15.6448ZM7.8009 16.0003H2.75557C2.66743 16.0003 2.58242 15.9676 2.51705 15.9085C2.45168 15.8494 2.41061 15.768 2.40179 15.6803L1.8329 9.98755C1.82768 9.93858 1.83294 9.88907 1.84832 9.8423C1.86371 9.79552 1.88888 9.75256 1.92215 9.71626C1.96792 9.6658 2.02733 9.62969 2.0932 9.6123C2.15907 9.59491 2.22857 9.59699 2.29328 9.61828C2.35799 9.63958 2.41514 9.67917 2.45781 9.73228C2.50048 9.78539 2.52684 9.84972 2.5337 9.9175L3.00624 14.6492C3.02387 14.8246 3.10602 14.9872 3.23676 15.1055C3.3675 15.2238 3.5375 15.2892 3.71379 15.2892H7.8009C7.8952 15.2892 7.98564 15.3267 8.05232 15.3934C8.119 15.4601 8.15646 15.5505 8.15646 15.6448C8.15646 15.7391 8.119 15.8295 8.05232 15.8962C7.98564 15.9629 7.8952 16.0003 7.8009 16.0003ZM20.3076 15.7515L20.8765 10.0587C20.8905 9.91972 20.877 9.77939 20.8367 9.64568C20.7965 9.51196 20.7304 9.38747 20.642 9.27933C20.5537 9.17118 20.4449 9.0815 20.3219 9.01539C20.1989 8.94928 20.0641 8.90804 19.9252 8.89404C19.7862 8.88003 19.6459 8.89352 19.5122 8.93375C19.3785 8.97397 19.254 9.04014 19.1458 9.12848C19.0377 9.21681 18.948 9.32559 18.8819 9.44858C18.8158 9.57158 18.7746 9.70639 18.7605 9.84532L18.2898 14.5781H14.2009C13.9255 14.5785 13.661 14.6855 13.4629 14.8769C13.2648 15.0682 13.1486 15.3288 13.1387 15.6041C13.1288 15.8793 13.226 16.1476 13.4098 16.3527C13.5936 16.5577 13.8498 16.6835 14.1245 16.7036L13.4969 19.8403C13.4819 19.9313 13.5029 20.0245 13.5553 20.1003C13.6078 20.1761 13.6876 20.2286 13.778 20.2467C13.8684 20.2648 13.9623 20.247 14.0399 20.1972C14.1174 20.1474 14.1726 20.0694 14.1938 19.9797L14.848 16.7115H19.2427L19.8969 19.9826C19.9046 20.0297 19.9218 20.0747 19.9473 20.115C19.9728 20.1554 20.0062 20.1901 20.0455 20.2173C20.0847 20.2444 20.129 20.2634 20.1757 20.2731C20.2225 20.2827 20.2707 20.2829 20.3175 20.2735C20.3643 20.2642 20.4087 20.2455 20.4481 20.2186C20.4875 20.1917 20.5212 20.1571 20.5469 20.117C20.5727 20.0768 20.5902 20.0319 20.5982 19.9849C20.6063 19.9378 20.6048 19.8896 20.5938 19.8432L19.9182 16.4707C20.0276 16.3827 20.1183 16.2737 20.1852 16.1502C20.252 16.0267 20.2936 15.8912 20.3076 15.7515ZM13.8453 15.6448C13.8453 15.5505 13.8828 15.4601 13.9495 15.3934C14.0162 15.3267 14.1066 15.2892 14.2009 15.2892H18.2898C18.4661 15.2892 18.6361 15.2238 18.7668 15.1055C18.8976 14.9872 18.9797 14.8246 18.9973 14.6492L19.4702 9.91821C19.477 9.8504 19.5034 9.78602 19.546 9.73287C19.5886 9.67971 19.6458 9.64007 19.7105 9.61873C19.7752 9.5974 19.8448 9.59529 19.9107 9.61266C19.9766 9.63003 20.036 9.66614 20.0818 9.71661C20.1151 9.75291 20.1402 9.79588 20.1556 9.84265C20.171 9.88943 20.1763 9.93894 20.171 9.9879L19.6 15.6803C19.5912 15.7684 19.5498 15.8499 19.4841 15.9091C19.4183 15.9682 19.3329 16.0008 19.2445 16.0003H14.2009C14.1066 16.0003 14.0162 15.9629 13.9495 15.8962C13.8828 15.8295 13.8453 15.7391 13.8453 15.6448Z" fill="white"/>
<path d="M12.0673 19.911V12.7999H14.5562C14.8391 12.7999 15.1104 12.6875 15.3105 12.4875C15.5105 12.2874 15.6229 12.0161 15.6229 11.7332C15.6229 11.4503 15.5105 11.179 15.3105 10.979C15.1104 10.7789 14.8391 10.6666 14.5562 10.6666H7.44509C7.16219 10.6666 6.89088 10.7789 6.69085 10.979C6.49081 11.179 6.37843 11.4503 6.37843 11.7332C6.37843 12.0161 6.49081 12.2874 6.69085 12.4875C6.89088 12.6875 7.16219 12.7999 7.44509 12.7999H9.93398V19.911C9.93398 20.0053 9.97144 20.0957 10.0381 20.1624C10.1048 20.2291 10.1952 20.2666 10.2895 20.2666H11.7118C11.8061 20.2666 11.8965 20.2291 11.9632 20.1624C12.0299 20.0957 12.0673 20.0053 12.0673 19.911ZM7.08954 11.7332C7.08954 11.6389 7.127 11.5485 7.19368 11.4818C7.26036 11.4151 7.35079 11.3777 7.44509 11.3777H14.5562C14.6505 11.3777 14.7409 11.4151 14.8076 11.4818C14.8743 11.5485 14.9118 11.6389 14.9118 11.7332C14.9118 11.8275 14.8743 11.918 14.8076 11.9846C14.7409 12.0513 14.6505 12.0888 14.5562 12.0888H7.44509C7.35079 12.0888 7.26036 12.0513 7.19368 11.9846C7.127 11.918 7.08954 11.8275 7.08954 11.7332ZM11.3562 19.5554H10.6451V12.7999H11.3562V19.5554ZM0.491848 1.71757C0.51887 1.73571 1.08136 2.10868 1.97451 2.61855C1.82937 2.84624 1.75352 3.11121 1.7562 3.38122C1.7562 4.24024 2.49256 4.79455 3.2826 5.58566C3.34928 5.65232 3.4397 5.68976 3.53398 5.68976C3.62826 5.68976 3.71868 5.65232 3.78536 5.58566C4.26935 5.16313 4.70453 4.68775 5.08278 4.16842C6.40354 4.76617 7.80412 5.16895 9.24065 5.36415C9.34483 6.10442 10.0271 6.64024 10.7493 7.36237C10.8159 7.42906 10.9064 7.46653 11.0006 7.46655C11.1973 7.46655 11.2613 7.35171 11.6158 7.00433C12.2248 6.41162 12.6774 5.96539 12.761 5.36059C14.1968 5.16408 15.5968 4.7621 16.9182 4.167C17.2967 4.6863 17.732 5.16177 18.2159 5.58459C18.2826 5.65125 18.373 5.6887 18.4673 5.6887C18.5616 5.6887 18.652 5.65125 18.7187 5.58459C19.5382 4.76433 20.2451 4.22246 20.2451 3.38122C20.2519 3.11024 20.1754 2.8437 20.0261 2.61748C20.9203 2.11082 21.4838 1.73535 21.5098 1.71757C21.5486 1.69156 21.5819 1.65817 21.6078 1.61929C21.6337 1.58042 21.6517 1.53682 21.6607 1.49099C21.6698 1.44517 21.6697 1.39801 21.6605 1.35221C21.6513 1.30641 21.6332 1.26286 21.6072 1.22406C21.5812 1.18526 21.5478 1.15196 21.5089 1.12607C21.4701 1.10017 21.4265 1.08219 21.3806 1.07314C21.3348 1.06409 21.2877 1.06416 21.2419 1.07334C21.1961 1.08252 21.1525 1.10063 21.1137 1.12664C21.107 1.13126 20.4229 1.58673 19.3882 2.15775C19.2256 2.12191 19.0568 2.1263 18.8963 2.17054C18.7358 2.21479 18.5886 2.29754 18.4673 2.41162C17.7327 1.75206 16.6138 2.31739 16.6981 3.48788C14.3372 4.49588 12.7073 4.68362 12.6885 4.64771C12.6386 4.4797 12.5467 4.32722 12.4214 4.20475C12.296 4.08228 12.1415 3.99388 11.9723 3.94796C11.8032 3.90204 11.6252 3.90012 11.4551 3.94237C11.285 3.98463 11.1286 4.06966 11.0006 4.18939C10.8724 4.06887 10.7152 3.98342 10.5444 3.94127C10.3735 3.89913 10.1946 3.9017 10.025 3.94875C9.85542 3.99581 9.7008 4.08575 9.57606 4.20992C9.45132 4.33408 9.36066 4.48828 9.31283 4.65766C7.92625 4.46538 6.57521 4.07153 5.30251 3.48859C5.38678 2.33091 4.27709 1.74424 3.53398 2.41162C3.41147 2.29842 3.26351 2.21638 3.1026 2.17244C2.9417 2.1285 2.77257 2.12395 2.60954 2.15917C1.57843 1.58495 0.894692 1.13126 0.887937 1.12806C0.80977 1.08105 0.716525 1.06587 0.627486 1.08568C0.538446 1.10548 0.460423 1.15875 0.409552 1.23446C0.358681 1.31017 0.338854 1.40254 0.354171 1.49246C0.369489 1.58238 0.418779 1.66297 0.491848 1.71757ZM17.9912 2.94637C18.111 3.04593 18.1334 3.16611 18.2262 3.25748C18.2858 3.31359 18.3631 3.3471 18.4448 3.35223C18.5265 3.35736 18.6074 3.33378 18.6735 3.28557C18.7866 3.19775 18.8339 3.04842 18.9356 2.94779C18.9748 2.906 19.0244 2.87548 19.0794 2.85943C19.1344 2.84338 19.1927 2.84239 19.2482 2.85656C19.3037 2.87072 19.3544 2.89953 19.395 2.93997C19.4355 2.98041 19.4645 3.031 19.4789 3.08646C19.6566 3.50353 19.379 3.91348 19.0778 4.23633C19.027 4.29073 18.4734 4.84077 18.4673 4.83366C17.8739 4.25517 17.2197 3.71082 17.4483 3.10922C17.4608 3.05282 17.4881 3.00077 17.5274 2.95845C17.5667 2.91613 17.6166 2.88507 17.672 2.86847C17.7273 2.85188 17.7861 2.85035 17.8422 2.86404C17.8983 2.87774 17.9498 2.90616 17.9912 2.94637ZM10.5246 4.72415C10.6005 4.81004 10.6677 4.9033 10.7251 5.00255C10.7554 5.04059 10.7932 5.07191 10.8362 5.09451C10.8793 5.11712 10.9265 5.13053 10.975 5.13387C11.0235 5.13721 11.0722 5.13043 11.1179 5.11394C11.1636 5.09745 11.2054 5.07163 11.2406 5.03811C11.3758 4.90797 11.4302 4.65482 11.6616 4.62495C11.7268 4.62169 11.7916 4.63716 11.8483 4.66955C11.905 4.70193 11.9513 4.74988 11.9816 4.80771C12.2458 5.26388 11.8654 5.74922 11.5628 6.06673C11.518 6.11402 11.006 6.61962 10.9999 6.61393C10.5982 6.22282 10.1196 5.79793 9.97736 5.39828C9.87674 5.11633 9.94643 4.70211 10.2344 4.64308C10.2858 4.63411 10.3385 4.63663 10.3888 4.65046C10.4391 4.66429 10.4857 4.68909 10.5253 4.72308L10.5246 4.72415ZM3.52723 3.35491C3.85683 3.36273 3.86856 2.99935 4.09611 2.87882C4.36705 2.73659 4.70056 3.05304 4.569 3.56539C4.40814 3.96122 4.14628 4.30793 3.80954 4.57091L3.53398 4.83544C3.0202 4.33304 2.46731 3.84842 2.46731 3.38122C2.46731 2.88984 2.86305 2.63099 3.16171 3.06762C3.26411 3.21802 3.32065 3.34993 3.52723 3.35491Z" fill="white"/>
</g>
<defs>
<clipPath id="clip0_1360_17150">
<rect width="21.3333" height="21.3333" fill="white" transform="translate(0.333496)"/>
</clipPath>
</defs>
</svg>
