<svg width="31" height="23" viewBox="0 0 31 23" fill="none" xmlns="http://www.w3.org/2000/svg">
<path d="M30.771 4.74633L28.2128 1.16493C28.1655 1.09863 28.103 1.04458 28.0306 1.0073C27.9581 0.97001 27.8778 0.950559 27.7964 0.950562L3.74985 0.950562C3.67605 0.950606 3.60314 0.966636 3.53613 0.997548C3.46911 1.02846 3.40959 1.07352 3.36166 1.12963L0.291888 4.71103C0.212089 4.80343 0.168268 4.9215 0.168458 5.04358V7.0901C0.168458 7.22579 0.222361 7.35592 0.31831 7.45187C0.414259 7.54782 0.544393 7.60172 0.680086 7.60172H1.19171V22.4389C1.19171 22.5746 1.24562 22.7048 1.34157 22.8007C1.43751 22.8967 1.56765 22.9506 1.70334 22.9506H3.74985C3.88555 22.9506 4.01568 22.8967 4.11163 22.8007C4.20758 22.7048 4.26148 22.5746 4.26148 22.4389V7.60172H4.77311V18.8575C4.77311 18.9932 4.82701 19.1234 4.92296 19.2193C5.01891 19.3153 5.14904 19.3692 5.28474 19.3692H6.81962C6.95531 19.3692 7.08545 19.3153 7.1814 19.2193C7.27734 19.1234 7.33125 18.9932 7.33125 18.8575V7.60172H23.7033V18.8575C23.7033 18.9932 23.7572 19.1234 23.8532 19.2193C23.9491 19.3153 24.0793 19.3692 24.215 19.3692H25.7499C25.8855 19.3692 26.0157 19.3153 26.1116 19.2193C26.2076 19.1234 26.2615 18.9932 26.2615 18.8575V7.60172H26.7731V22.4389C26.7731 22.5746 26.827 22.7048 26.923 22.8007C27.0189 22.8967 27.149 22.9506 27.2847 22.9506H29.3312C29.4669 22.9506 29.5971 22.8967 29.693 22.8007C29.789 22.7048 29.8429 22.5746 29.8429 22.4389V7.60172H30.3545C30.4902 7.60172 30.6203 7.54782 30.7163 7.45187C30.8122 7.35592 30.8661 7.22579 30.8661 7.0901V5.04358C30.8661 4.93691 30.8329 4.83299 30.771 4.74633ZM3.9852 1.97382H27.5328L29.3605 4.53196H1.7923L3.9852 1.97382ZM3.23823 21.9273H2.21497V7.60172H3.23823V21.9273ZM6.30799 18.3459H5.79636V7.60172H6.30799V18.3459ZM25.2382 18.3459H24.7266V7.60172H25.2382V18.3459ZM28.8196 21.9273H27.7964V7.60172H28.8196V21.9273ZM1.19171 6.57847V5.55521H29.8429V6.57847H1.19171Z" fill="#919EAB"/>
</svg>
