<svg width="19" height="19" viewBox="0 0 19 19" fill="none" xmlns="http://www.w3.org/2000/svg">
<path d="M18.421 17.3734C17.0841 15.0621 15.0238 13.4048 12.6195 12.6191C13.8088 11.9112 14.7328 10.8323 15.2496 9.54839C15.7664 8.26444 15.8475 6.84633 15.4804 5.51184C15.1132 4.17736 14.3182 3.00029 13.2173 2.16139C12.1164 1.3225 10.7706 0.868164 9.38656 0.868164C8.00249 0.868164 6.65669 1.3225 5.55582 2.16139C4.45496 3.00029 3.6599 4.17736 3.29276 5.51184C2.92561 6.84633 3.00667 8.26444 3.52349 9.54839C4.0403 10.8323 4.9643 11.9112 6.15359 12.6191C3.74927 13.4039 1.68905 15.0612 0.352149 17.3734C0.303122 17.4533 0.270603 17.5423 0.25651 17.635C0.242417 17.7277 0.247036 17.8223 0.270095 17.9132C0.293153 18.0041 0.334183 18.0894 0.390765 18.1642C0.447347 18.239 0.518333 18.3017 0.599537 18.3486C0.680741 18.3955 0.770516 18.4257 0.863567 18.4373C0.956618 18.449 1.05106 18.4418 1.14132 18.4164C1.23158 18.391 1.31583 18.3477 1.38909 18.2892C1.46236 18.2306 1.52316 18.158 1.56791 18.0756C3.22171 15.2175 6.14481 13.511 9.38656 13.511C12.6283 13.511 15.5514 15.2175 17.2052 18.0756C17.25 18.158 17.3108 18.2306 17.384 18.2892C17.4573 18.3477 17.5415 18.391 17.6318 18.4164C17.7221 18.4418 17.8165 18.449 17.9095 18.4373C18.0026 18.4257 18.0924 18.3955 18.1736 18.3486C18.2548 18.3017 18.3258 18.239 18.3824 18.1642C18.4389 18.0894 18.48 18.0041 18.503 17.9132C18.5261 17.8223 18.5307 17.7277 18.5166 17.635C18.5025 17.5423 18.47 17.4533 18.421 17.3734ZM4.47083 7.19078C4.47083 6.21854 4.75913 5.26813 5.29928 4.45974C5.83943 3.65136 6.60716 3.02129 7.50539 2.64923C8.40362 2.27717 9.39201 2.17983 10.3456 2.3695C11.2991 2.55918 12.175 3.02735 12.8625 3.71483C13.55 4.40231 14.0182 5.27821 14.2078 6.23177C14.3975 7.18532 14.3002 8.17371 13.9281 9.07195C13.556 9.97018 12.926 10.7379 12.1176 11.2781C11.3092 11.8182 10.3588 12.1065 9.38656 12.1065C8.08325 12.1051 6.83373 11.5868 5.91215 10.6652C4.99058 9.74361 4.47222 8.49408 4.47083 7.19078Z" fill="white"/>
</svg>
