<svg width="19" height="18" viewBox="0 0 19 18" fill="none" xmlns="http://www.w3.org/2000/svg">
<path d="M18.1724 16.5052C16.8355 14.1939 14.7753 12.5366 12.371 11.751C13.5603 11.043 14.4843 9.96418 15.0011 8.68023C15.5179 7.39627 15.599 5.97816 15.2318 4.64368C14.8647 3.30919 14.0696 2.13212 12.9688 1.29323C11.8679 0.454333 10.5221 0 9.13802 0C7.75395 0 6.40815 0.454333 5.30729 1.29323C4.20642 2.13212 3.41137 3.30919 3.04422 4.64368C2.67707 5.97816 2.75813 7.39627 3.27495 8.68023C3.79177 9.96418 4.71577 11.043 5.90505 11.751C3.50073 12.5357 1.44052 14.193 0.103613 16.5052C0.0545868 16.5851 0.0220678 16.6741 0.00797506 16.7668C-0.00611767 16.8595 -0.00149866 16.9541 0.0215596 17.045C0.0446178 17.1359 0.0856482 17.2213 0.14223 17.296C0.198811 17.3708 0.269798 17.4335 0.351002 17.4804C0.432205 17.5273 0.521981 17.5575 0.615032 17.5691C0.708083 17.5808 0.802523 17.5737 0.892782 17.5482C0.983041 17.5228 1.06729 17.4795 1.14056 17.421C1.21383 17.3625 1.27463 17.2899 1.31938 17.2074C2.97317 14.3493 5.89628 12.6428 9.13802 12.6428C12.3798 12.6428 15.3029 14.3493 16.9567 17.2074C17.0014 17.2899 17.0622 17.3625 17.1355 17.421C17.2088 17.4795 17.293 17.5228 17.3833 17.5482C17.4735 17.5737 17.568 17.5808 17.661 17.5691C17.7541 17.5575 17.8438 17.5273 17.925 17.4804C18.0062 17.4335 18.0772 17.3708 18.1338 17.296C18.1904 17.2213 18.2314 17.1359 18.2545 17.045C18.2775 16.9541 18.2822 16.8595 18.2681 16.7668C18.254 16.6741 18.2215 16.5851 18.1724 16.5052ZM4.22229 6.32261C4.22229 5.35037 4.5106 4.39997 5.05074 3.59158C5.59089 2.78319 6.35862 2.15313 7.25685 1.78107C8.15509 1.40901 9.14348 1.31166 10.097 1.50134C11.0506 1.69101 11.9265 2.15919 12.614 2.84667C13.3014 3.53414 13.7696 4.41004 13.9593 5.3636C14.149 6.31716 14.0516 7.30555 13.6796 8.20378C13.3075 9.10201 12.6774 9.86975 11.8691 10.4099C11.0607 10.95 10.1103 11.2383 9.13802 11.2383C7.83472 11.2369 6.58519 10.7186 5.66362 9.79702C4.74204 8.87544 4.22369 7.62592 4.22229 6.32261Z" fill="#050F0F"/>
</svg>
