<svg width="22" height="22" viewBox="0 0 22 22" fill="none" xmlns="http://www.w3.org/2000/svg">
<g clip-path="url(#clip0_1360_17166)">
<path d="M18.5119 0.0830078H3.48926V19.8799H4.85571V21.2464H8.26768V19.8799H13.7293V21.2464H17.1413V19.8799H18.5077V0.0830078H18.5119ZM7.58862 20.5631H5.53894V19.8799H7.58862V20.5631ZM16.4622 20.5631H14.4126V19.8799H16.4622V20.5631ZM17.8287 19.1967H4.17248V0.766234H17.8245V19.1967H17.8287Z" fill="white"/>
<path d="M11.0011 18.518C13.6382 18.518 15.7795 16.3725 15.7795 13.7396C15.7795 11.1067 13.6382 8.95703 11.0011 8.95703C8.36399 8.95703 6.22266 11.1025 6.22266 13.7355C6.22266 16.3684 8.36399 18.518 11.0011 18.518ZM11.0011 9.64026C13.2591 9.64026 15.0963 11.4775 15.0963 13.7355C15.0963 15.9934 13.2591 17.8306 11.0011 17.8306C8.7431 17.8306 6.90588 15.9934 6.90588 13.7355C6.90588 11.4775 8.7431 9.64026 11.0011 9.64026Z" fill="white"/>
<path d="M11.001 16.8093C12.6966 16.8093 14.0714 15.4304 14.0714 13.739C14.0714 12.0476 12.6966 10.6644 11.001 10.6644C9.30545 10.6644 7.93066 12.0434 7.93066 13.7348C7.93066 15.4262 9.30545 16.8093 11.001 16.8093ZM11.001 11.3477C12.3175 11.3477 13.3923 12.4183 13.3923 13.739C13.3923 15.0596 12.3216 16.1303 11.001 16.1303C9.68039 16.1303 8.60972 15.0596 8.60972 13.739C8.60972 12.4183 9.68456 11.3477 11.001 11.3477ZM11.001 7.59409C12.6966 7.59409 14.0714 6.21514 14.0714 4.52374C14.0714 2.83234 12.6966 1.44922 11.001 1.44922C9.30545 1.44922 7.93066 2.82817 7.93066 4.51957C7.93066 6.21097 9.30545 7.59409 11.001 7.59409ZM11.001 2.13245C12.3175 2.13245 13.3923 3.20311 13.3923 4.52374C13.3923 5.84437 12.3216 6.91503 11.001 6.91503C9.68039 6.91503 8.60972 5.84437 8.60972 4.52374C8.60972 3.20311 9.68456 2.13245 11.001 2.13245Z" fill="white"/>
<path d="M11.0003 5.88603C11.7544 5.88603 12.3668 5.27362 12.3668 4.51957C12.3668 3.76552 11.7544 3.15312 11.0003 3.15312C10.2463 3.15312 9.63389 3.76552 9.63389 4.51957C9.63389 5.27362 10.2463 5.88603 11.0003 5.88603ZM11.0003 3.83635C11.3753 3.83635 11.6836 4.14463 11.6836 4.51957C11.6836 4.89451 11.3794 5.2028 11.0003 5.2028C10.6254 5.2028 10.3171 4.89451 10.3171 4.51957C10.3171 4.14463 10.6254 3.83635 11.0003 3.83635ZM4.85547 1.44922H5.5387V2.13245H4.85547V1.44922ZM16.462 1.44922H17.1452V2.13245H16.462V1.44922ZM4.85547 17.8342H5.5387V18.5174H4.85547V17.8342ZM16.462 17.8342H17.1452V18.5174H16.462V17.8342Z" fill="white"/>
</g>
<defs>
<clipPath id="clip0_1360_17166">
<rect width="21.33" height="21.33" fill="white" transform="translate(0.334961)"/>
</clipPath>
</defs>
</svg>
