<svg width="22" height="22" viewBox="0 0 22 22" fill="none" xmlns="http://www.w3.org/2000/svg">
<g clip-path="url(#clip0_1360_17157)">
<path d="M20.3318 9.33141H17.9414L14.3328 5.72281C14.2094 5.59848 14.0626 5.49991 13.9008 5.43282C13.7391 5.36574 13.5656 5.33148 13.3904 5.33204H4.02438C3.80541 5.33244 3.58991 5.38678 3.39693 5.49025C3.20395 5.59372 3.03942 5.74313 2.91789 5.92528L0.44661 9.62803C0.373998 9.73777 0.335178 9.86639 0.334961 9.99798L0.334961 13.9974C0.334961 14.3509 0.475415 14.69 0.725424 14.94C0.975434 15.19 1.31452 15.3305 1.66809 15.3305H3.08453C3.23138 15.904 3.56492 16.4123 4.03259 16.7753C4.50026 17.1384 5.07544 17.3354 5.66746 17.3354C6.25948 17.3354 6.83467 17.1384 7.30233 16.7753C7.77 16.4123 8.10355 15.904 8.25039 15.3305H13.7495C13.8964 15.904 14.2299 16.4123 14.6976 16.7753C15.1653 17.1384 15.7404 17.3354 16.3325 17.3354C16.9245 17.3354 17.4997 17.1384 17.9673 16.7753C18.435 16.4123 18.7685 15.904 18.9154 15.3305H20.3318C20.6854 15.3305 21.0245 15.19 21.2745 14.94C21.5245 14.69 21.665 14.3509 21.665 13.9974V10.6645C21.665 10.311 21.5245 9.97189 21.2745 9.72188C21.0245 9.47187 20.6854 9.33141 20.3318 9.33141ZM4.02438 6.66516H13.3904L16.0567 9.33141H2.25133L4.02438 6.66516ZM5.66746 15.997C5.40379 15.997 5.14605 15.9189 4.92682 15.7724C4.70759 15.6259 4.53672 15.4177 4.43581 15.1741C4.33491 14.9305 4.30851 14.6624 4.35995 14.4038C4.41139 14.1452 4.53836 13.9077 4.7248 13.7213C4.91124 13.5348 5.14878 13.4078 5.40738 13.3564C5.66598 13.305 5.93403 13.3314 6.17763 13.4323C6.42122 13.5332 6.62943 13.704 6.77591 13.9233C6.9224 14.1425 7.00059 14.4002 7.00059 14.6639C7.00059 15.0175 6.86013 15.3566 6.61012 15.6066C6.36011 15.8566 6.02103 15.997 5.66746 15.997ZM16.3325 15.997C16.0688 15.997 15.811 15.9189 15.5918 15.7724C15.3726 15.6259 15.2017 15.4177 15.1008 15.1741C14.9999 14.9305 14.9735 14.6624 15.025 14.4038C15.0764 14.1452 15.2034 13.9077 15.3898 13.7213C15.5762 13.5348 15.8138 13.4078 16.0724 13.3564C16.331 13.305 16.599 13.3314 16.8426 13.4323C17.0862 13.5332 17.2944 13.704 17.4409 13.9233C17.5874 14.1425 17.6656 14.4002 17.6656 14.6639C17.6656 15.0175 17.5251 15.3566 17.2751 15.6066C17.0251 15.8566 16.686 15.997 16.3325 15.997ZM20.3318 13.9974H18.9154C18.7685 13.4238 18.435 12.9155 17.9673 12.5525C17.4997 12.1895 16.9245 11.9924 16.3325 11.9924C15.7404 11.9924 15.1653 12.1895 14.6976 12.5525C14.2299 12.9155 13.8964 13.4238 13.7495 13.9974H8.25039C8.10355 13.4238 7.77 12.9155 7.30233 12.5525C6.83467 12.1895 6.25948 11.9924 5.66746 11.9924C5.07544 11.9924 4.50026 12.1895 4.03259 12.5525C3.56492 12.9155 3.23138 13.4238 3.08453 13.9974H1.66809V10.6645H20.3318V13.9974Z" fill="white"/>
</g>
<defs>
<clipPath id="clip0_1360_17157">
<rect width="21.33" height="21.33" fill="white" transform="translate(0.334961)"/>
</clipPath>
</defs>
</svg>
