<svg width="22" height="23" viewBox="0 0 22 23" fill="none" xmlns="http://www.w3.org/2000/svg">
<path d="M19.742 19.818H2.24983C1.76654 19.818 1.375 20.2095 1.375 20.6932C1.375 21.1761 1.76654 21.5676 2.24983 21.5676H19.7416C20.2248 21.5676 20.6164 21.1761 20.6164 20.6932C20.616 20.2095 20.2244 19.818 19.742 19.818Z" fill="#637381"/>
<path d="M3.34358 17.5436C2.86029 17.5436 2.46875 17.9352 2.46875 18.4185C2.46875 18.9018 2.86029 19.2937 3.34358 19.2937H18.649C19.1323 19.2937 19.5239 18.9018 19.5239 18.4185C19.5239 17.9352 19.1323 17.5436 18.649 17.5436H18.4307V9.6718H18.649C18.8911 9.6718 19.086 9.47603 19.086 9.2348C19.086 8.99356 18.8903 8.79779 18.649 8.79779H3.34358C3.10194 8.79779 2.90658 8.99356 2.90658 9.2348C2.90658 9.47603 3.10235 9.6718 3.34358 9.6718H3.56229V17.5432H3.34358V17.5436ZM16.6811 9.6718V17.5432H14.0574V9.6718H16.6811ZM12.3077 9.6718V17.5432H9.68406V9.6718H12.3077ZM5.31113 9.6718H7.93481V17.5432H5.31113V9.6718Z" fill="#637381"/>
<path opacity="0.48" d="M2.24985 8.01144H19.7416C19.7444 8.01144 19.7477 8.01144 19.7502 8.01144C20.2339 8.01144 20.625 7.61989 20.625 7.1366C20.625 6.75243 20.3776 6.42683 20.034 6.30887L11.3553 2.40367C11.1272 2.30128 10.8663 2.30128 10.6377 2.40367L1.89107 6.33918C1.51468 6.50874 1.30785 6.91749 1.39468 7.3205C1.48109 7.72351 1.83742 8.01144 2.24985 8.01144Z" fill="#637381"/>
</svg>
