<svg width="24" height="25" viewBox="0 0 24 25" fill="none" xmlns="http://www.w3.org/2000/svg">
<path d="M16.8125 3.7852H15.6666V2.86854C15.6666 2.36254 15.2569 1.95187 14.75 1.95187C14.2431 1.95187 13.8333 2.36254 13.8333 2.86854V3.7852H6.49999V2.86854C6.49999 2.36254 6.09024 1.95187 5.58332 1.95187C5.07641 1.95187 4.66666 2.36254 4.66666 2.86854V3.7852H3.52083C2.13025 3.7852 1 4.91545 1 6.30603V16.6185C1 18.1347 2.23383 19.3685 3.74999 19.3685H8.33332C8.84023 19.3685 9.24998 18.9578 9.24998 18.4518C9.24998 17.9458 8.84023 17.5352 8.33332 17.5352H3.74999C3.244 17.5352 2.83333 17.1236 2.83333 16.6185V9.28519H17.5C17.5 9.79119 17.9097 10.2019 18.4166 10.2019C18.9235 10.2019 19.3333 9.79119 19.3333 9.28519V6.30603C19.3333 4.91545 18.2031 3.7852 16.8125 3.7852Z" fill="#637381"/>
<path opacity="0.48" d="M17.0418 12.0352C13.7565 12.0352 11.0835 14.7082 11.0835 17.9935C11.0835 21.2789 13.7565 23.9519 17.0418 23.9519C20.3271 23.9519 23.0001 21.2789 23.0001 17.9935C23.0001 14.7082 20.3271 12.0352 17.0418 12.0352ZM19.7973 16.9898L16.8181 20.4273C16.6513 20.6198 16.4121 20.7335 16.1581 20.7435C16.1471 20.7435 16.1361 20.7435 16.1251 20.7435C15.8822 20.7435 15.6494 20.6473 15.4771 20.475L13.8729 18.8708C13.5145 18.5124 13.5145 17.933 13.8729 17.5746C14.2313 17.2162 14.8106 17.2162 15.1691 17.5746L16.0775 18.483L18.4113 15.7899C18.7431 15.4067 19.3225 15.3673 19.7047 15.6973C20.087 16.0282 20.1282 16.6075 19.7973 16.9898Z" fill="#637381"/>
</svg>
