<svg width="22" height="23" viewBox="0 0 22 23" fill="none" xmlns="http://www.w3.org/2000/svg">
<path opacity="0.48" fill-rule="evenodd" clip-rule="evenodd" d="M13.3521 4.29981C13.3521 3.46623 14.0338 2.78516 14.8674 2.78516C15.701 2.78516 16.385 3.46623 16.385 4.29981C16.385 5.13341 15.701 5.81506 14.8674 5.81506C14.0338 5.81506 13.3521 5.13341 13.3521 4.29981ZM7.41846 6.42377C7.81528 5.02551 9.10091 3.99665 10.6242 3.99665C12.1475 3.99665 13.4332 5.02551 13.83 6.42377H7.41846Z" fill="#637381"/>
<path fill-rule="evenodd" clip-rule="evenodd" d="M2.74241 5.21094C2.46446 5.21094 2.2187 5.32545 2.06206 5.50167C1.90541 5.6779 1.8335 5.90027 1.8335 6.11926C1.8335 6.33825 1.90541 6.56062 2.06206 6.73685C2.2187 6.91306 2.46446 7.02817 2.74241 7.02817H4.41872L6.09443 15.9953C6.17447 16.4233 6.55398 16.7296 6.98558 16.7296H16.687C17.103 16.7296 17.476 16.4454 17.571 16.0338L19.3906 8.15143C19.5206 7.58823 19.0894 7.02995 18.5066 7.02995H6.27622L6.05891 5.94281C5.97466 5.52008 5.59938 5.21209 5.16835 5.21094H2.74241ZM8.80459 17.3359C7.97101 17.3359 7.28994 18.0176 7.28994 18.8511C7.28993 19.6847 7.971 20.3682 8.80459 20.3682C9.63818 20.3682 10.3198 19.6847 10.3198 18.8511C10.3198 18.0176 9.63818 17.3359 8.80459 17.3359ZM13.3521 18.8511C13.3521 18.0176 14.0338 17.3359 14.8674 17.3359C15.701 17.3359 16.385 18.0176 16.385 18.8511C16.385 19.6847 15.701 20.3682 14.8674 20.3682C14.0338 20.3682 13.3521 19.6847 13.3521 18.8511Z" fill="#637381"/>
</svg>
