<svg width="58" height="58" viewBox="0 0 58 58" fill="none" xmlns="http://www.w3.org/2000/svg">
<g opacity="0.48">
<circle cx="29" cy="29" r="26.6" stroke="#919EAB" stroke-opacity="0.16" stroke-width="4"/>
<path d="M2.40002 29C2.40002 43.6908 14.3093 55.6 29 55.6C43.6908 55.6 55.6 43.6908 55.6 29C55.6 14.3092 43.6908 2.39999 29 2.39999" stroke="#9042FB" stroke-width="4" stroke-linecap="round" stroke-linejoin="round"/>
</g>
<path fill-rule="evenodd" clip-rule="evenodd" d="M19.4004 29C19.4004 23.4772 23.8775 19 29.4004 19C32.0526 19 34.5961 20.0536 36.4715 21.9289C38.3468 23.8043 39.4004 26.3478 39.4004 29C39.4004 34.5228 34.9232 39 29.4004 39C23.8775 39 19.4004 34.5228 19.4004 29ZM29.1304 32.61L33.7004 26.61V26.58C33.9183 26.2942 33.9672 25.9138 33.8287 25.5822C33.6901 25.2505 33.3852 25.018 33.0287 24.9722C32.6722 24.9264 32.3183 25.0742 32.1004 25.36L28.3204 30.36L26.6904 28.28C26.4707 27.9978 26.1171 27.8542 25.7628 27.9033C25.4085 27.9525 25.1074 28.1869 24.9728 28.5183C24.8382 28.8497 24.8907 29.2278 25.1104 29.51L27.5504 32.62C27.7412 32.8615 28.0326 33.0017 28.3404 33C28.6499 32.9993 28.9416 32.8552 29.1304 32.61Z" fill="#9042FB"/>
</svg>
