<svg width="21" height="22" viewBox="0 0 21 22" fill="none" xmlns="http://www.w3.org/2000/svg">
<path d="M7.59028 2.99605C3.53361 2.99605 0.429199 5.74876 0.429199 8.74951C0.429199 11.7503 3.10951 13.489 3.10951 13.489L2.6739 15.1401C2.61631 15.3577 2.84954 15.5375 3.04534 15.4264L5.00334 14.317C5.86922 14.5926 7.70669 14.6807 7.88562 14.6889C7.75728 14.2438 7.69394 13.8053 7.69394 13.396C7.69394 11.0802 9.71034 7.81823 14.1928 7.81823C14.2948 7.81823 14.3968 7.8207 14.4988 7.82481C13.9023 4.97009 10.9382 2.99605 7.59028 2.99605Z" fill="#637381"/>
<path opacity="0.48" d="M20.1739 13.0337C20.1739 10.4052 17.09 8.48049 14.1925 8.48049C10.0947 8.48049 8.35596 11.4401 8.35596 13.396C8.35596 15.3561 10.0943 18.3116 14.1925 18.3116C15.0991 18.3116 15.8967 18.1816 16.5902 17.9513L18.1315 18.9294C18.2533 19.0068 18.4071 18.8978 18.3746 18.7571L18.025 17.2392C19.4812 16.2249 20.1739 14.626 20.1739 13.0337Z" fill="#637381"/>
</svg>
