<svg width="12" height="12" viewBox="0 0 12 12" fill="none" xmlns="http://www.w3.org/2000/svg">
<path d="M11.71 0.29C11.617 0.196272 11.5064 0.121877 11.3846 0.0711088C11.2627 0.0203401 11.132 -0.00579834 11 -0.00579834C10.868 -0.00579834 10.7373 0.0203401 10.6154 0.0711088C10.4936 0.121877 10.383 0.196272 10.29 0.29L2 8.59V3C2 2.73478 1.89464 2.48043 1.70711 2.29289C1.51957 2.10536 1.26522 2 1 2C0.734784 2 0.48043 2.10536 0.292893 2.29289C0.105357 2.48043 0 2.73478 0 3V11C0 11.2652 0.105357 11.5196 0.292893 11.7071C0.48043 11.8946 0.734784 12 1 12H9C9.26522 12 9.51957 11.8946 9.70711 11.7071C9.89464 11.5196 10 11.2652 10 11C10 10.7348 9.89464 10.4804 9.70711 10.2929C9.51957 10.1054 9.26522 10 9 10H3.41L11.71 1.71C11.8037 1.61704 11.8781 1.50644 11.9289 1.38458C11.9797 1.26272 12.0058 1.13201 12.0058 1C12.0058 0.867988 11.9797 0.737282 11.9289 0.615423C11.8781 0.493564 11.8037 0.382963 11.71 0.29V0.29Z" fill="#394148"/>
</svg>
