<svg width="22" height="21" viewBox="0 0 22 21" fill="none" xmlns="http://www.w3.org/2000/svg">
<path d="M18.4792 7.53144L17.4233 9.11958C18.4576 11.1826 18.3867 13.6271 17.2344 15.6267H5.33622C3.82233 13.0004 4.2094 9.69218 6.28866 7.48631C8.36792 5.28043 11.6475 4.69871 14.3586 6.05489L15.9467 4.99899C12.6192 2.86524 8.26475 3.27955 5.39931 6.00254C2.53387 8.72552 1.89824 13.0532 3.85967 16.4851C4.16452 17.0132 4.72652 17.3399 5.33622 17.3436H17.2258C17.8417 17.346 18.4116 17.0185 18.7195 16.4851C20.3323 13.6914 20.2427 10.2295 18.4878 7.52285L18.4792 7.53144Z" fill="#637381"/>
<path opacity="0.48" d="M10.0753 13.4033C10.3974 13.7256 10.8344 13.9068 11.29 13.9068C11.7457 13.9068 12.1827 13.7256 12.5048 13.4033L17.3636 6.11496L10.0753 10.9738C9.75293 11.2959 9.57178 11.7329 9.57178 12.1885C9.57178 12.6442 9.75293 13.0812 10.0753 13.4033V13.4033Z" fill="#637381"/>
</svg>
