<svg width="25" height="25" viewBox="0 0 25 25" fill="none" xmlns="http://www.w3.org/2000/svg">
<path d="M9.25011 6.57059V9.31524C9.25011 9.65513 9.52525 9.93027 9.86514 9.93027C10.1738 9.93027 10.4295 9.70288 10.4735 9.40617L10.4802 9.31524V6.57059H16.1383V9.31524C16.1383 9.65513 16.4139 9.93027 16.7533 9.93027C17.0623 9.93027 17.3178 9.70288 17.3617 9.40617L17.3684 9.31524V6.57059H19.2208C19.9365 6.57059 20.5474 7.09456 20.6689 7.78741L20.6866 7.92813L21.6243 19.7451C21.6973 20.6934 21.3689 21.6356 20.7239 22.3318C20.1286 22.9745 19.3037 23.3646 18.4338 23.4208L18.2155 23.4278H8.40306C7.45387 23.4278 6.53955 23.028 5.89458 22.3319C5.29926 21.6892 4.97364 20.837 4.98413 19.965L4.9938 19.7467L5.93191 7.92649C5.98647 7.21424 6.55603 6.64575 7.25605 6.57747L7.39768 6.57059H9.25011ZM13.3483 10.5415C13.1216 10.5382 12.9347 10.7192 12.9314 10.9465V11.7021C11.4401 11.8081 10.426 12.7294 10.426 13.9556C10.426 15.4601 11.7052 15.8777 12.9314 16.2091V18.8603C12.2845 18.7735 11.6747 18.5051 11.175 18.0848C11.0809 18.0099 10.9642 17.9682 10.8436 17.9656C10.538 17.9868 10.3027 18.2426 10.3066 18.5488C10.306 18.6827 10.3584 18.8113 10.4525 18.9067C11.1372 19.5231 12.0174 19.8777 12.938 19.9075L12.9386 20.6505C12.9492 20.8772 13.1421 21.0522 13.3688 21.0409C13.5922 21.0409 13.7731 20.86 13.7731 20.6366V19.8943C15.5825 19.775 16.3116 18.6748 16.3116 17.5082C16.3116 15.944 14.9993 15.4668 13.7731 15.1354V12.8023C14.2722 12.8865 14.7428 13.0913 15.1451 13.3989C15.2253 13.4539 15.3195 13.4837 15.4169 13.485C15.7291 13.485 15.9836 13.2338 15.9869 12.9216C15.9875 12.7878 15.9352 12.6592 15.8411 12.5637C15.2598 12.066 14.5307 11.7724 13.7665 11.7286V10.9465C13.7665 10.7231 13.5856 10.5422 13.3622 10.5422C13.3576 10.5415 13.3529 10.5415 13.3483 10.5415ZM13.7731 16.461C14.5221 16.6731 15.1054 16.9581 15.0987 17.654C15.0987 18.1578 14.7541 18.7543 13.7731 18.8736V16.461ZM12.938 12.756V14.9233C12.2156 14.7112 11.6522 14.4925 11.6522 13.8761C11.6522 13.2597 12.1626 12.8156 12.938 12.756ZM13.3093 2.42781C15.5475 2.42781 17.3684 4.24907 17.3684 6.48733V6.57055H16.1384V6.48733C16.1384 4.92722 14.8694 3.65783 13.3093 3.65783C11.7492 3.65783 10.4802 4.92722 10.4802 6.48733V6.57055H9.25015V6.48733C9.25015 4.24907 11.071 2.42781 13.3093 2.42781Z" fill="#637381"/>
</svg>
