<svg width="16" height="10" viewBox="0 0 16 10" fill="none" xmlns="http://www.w3.org/2000/svg">
<path d="M15.5 0.833333C15.5079 0.775267 15.5079 0.7164 15.5 0.658333C15.4927 0.609408 15.4787 0.561728 15.4583 0.516667C15.4363 0.47594 15.4112 0.436939 15.3833 0.4C15.3516 0.347294 15.3123 0.299558 15.2667 0.258333L15.1667 0.2C15.1186 0.164131 15.0651 0.136012 15.0083 0.116667H14.8417C14.7909 0.0674959 14.7316 0.0279646 14.6667 0H10.5C10.0398 0 9.66667 0.373096 9.66667 0.833333C9.66667 1.29357 10.0398 1.66667 10.5 1.66667H12.8583L9.525 5.59167L5.925 3.45C5.57274 3.24049 5.12043 3.31823 4.85834 3.63333L0.691671 8.63333C0.549955 8.8034 0.481733 9.02287 0.502057 9.24331C0.522381 9.46375 0.629582 9.66704 0.800004 9.80833C0.949931 9.93257 1.13863 10.0004 1.33334 10C1.5812 10.0004 1.81637 9.89045 1.975 9.7L5.68334 5.25L9.24167 7.38333C9.59009 7.58999 10.0367 7.51615 10.3 7.20833L13.8333 3.08333V5C13.8333 5.46024 14.2064 5.83333 14.6667 5.83333C15.1269 5.83333 15.5 5.46024 15.5 5V0.833333Z" fill="#00AB55"/>
</svg>
