<svg width="58" height="58" viewBox="0 0 58 58" fill="none" xmlns="http://www.w3.org/2000/svg">
<g opacity="0.48">
<circle cx="29" cy="29" r="26.6" stroke="#919EAB" stroke-opacity="0.16" stroke-width="4"/>
<path d="M2.39999 29C2.39999 43.6908 14.3092 55.6 29 55.6C43.6908 55.6 55.6 43.6908 55.6 29C55.6 14.3092 43.6908 2.39999 29 2.39999" stroke="#FFC107" stroke-width="4" stroke-linecap="round" stroke-linejoin="round"/>
</g>
<path fill-rule="evenodd" clip-rule="evenodd" d="M19.4004 29C19.4004 23.4772 23.8775 19 29.4004 19C32.0526 19 34.5961 20.0536 36.4715 21.9289C38.3468 23.8043 39.4004 26.3478 39.4004 29C39.4004 34.5228 34.9232 39 29.4004 39C23.8775 39 19.4004 34.5228 19.4004 29ZM29.4004 30H33.4004C33.9527 30 34.4004 29.5523 34.4004 29C34.4004 28.4477 33.9527 28 33.4004 28H30.4004V25C30.4004 24.4477 29.9527 24 29.4004 24C28.8481 24 28.4004 24.4477 28.4004 25V29C28.4004 29.5523 28.8481 30 29.4004 30Z" fill="#FFC107"/>
</svg>
