<svg width="16" height="10" viewBox="0 0 16 10" fill="none" xmlns="http://www.w3.org/2000/svg">
<path d="M15.5 4.99999C15.5 4.53975 15.1269 4.16666 14.6667 4.16666C14.2064 4.16666 13.8333 4.53975 13.8333 4.99999V6.91666L10.3 2.74999C10.0367 2.44217 9.59009 2.36833 9.24167 2.57499L5.68333 4.74999L1.975 0.299991C1.78446 0.0707455 1.48609 -0.0394333 1.19229 0.0109579C0.898483 0.0613491 0.653881 0.264655 0.550619 0.544291C0.447358 0.823928 0.501125 1.13741 0.691666 1.36666L4.85833 6.36666C5.12043 6.68176 5.57274 6.7595 5.925 6.54999L9.49167 4.40832L12.825 8.33332H10.5C10.0398 8.33332 9.66667 8.70642 9.66667 9.16666C9.66667 9.62689 10.0398 9.99999 10.5 9.99999H14.6667C14.7692 9.99747 14.8706 9.97775 14.9667 9.94166L15.0833 9.87499C15.1268 9.85309 15.1686 9.82802 15.2083 9.79999C15.254 9.75877 15.2933 9.71103 15.325 9.65832C15.3529 9.62138 15.378 9.58238 15.4 9.54166C15.4204 9.4966 15.4344 9.44892 15.4417 9.39999C15.4755 9.32652 15.4952 9.24739 15.5 9.16666V4.99999Z" fill="#FF6D73"/>
</svg>
