<svg width="21" height="22" viewBox="0 0 21 22" fill="none" xmlns="http://www.w3.org/2000/svg">
<g clip-path="url(#clip0_4_3365)">
<path d="M19.8163 5.36385L10.7198 0.754717L10.716 0.752826C10.3109 0.551171 9.82966 0.555678 9.4284 0.764896L5.52692 2.83552C5.49521 2.84896 5.46475 2.86525 5.43558 2.884L0.760269 5.36534C0.291297 5.61089 0 6.09201 0 6.62153V15.1867C0 15.7162 0.291297 16.1973 0.760269 16.4428L9.42454 21.0413L9.42844 21.0433C9.63094 21.1487 9.85587 21.2037 10.0841 21.2035C10.3034 21.2037 10.5197 21.153 10.716 21.0554L19.8163 16.4444C20.2998 16.2026 20.6 15.7169 20.6 15.1762V6.63203C20.6 6.09132 20.2998 5.60558 19.8163 5.36385ZM9.98766 1.83404C10.0169 1.81909 10.0493 1.81115 10.0821 1.81085C10.115 1.81056 10.1474 1.81792 10.177 1.83235L18.6917 6.14669L15.3779 7.7965L7.05341 3.39136L9.98766 1.83404ZM9.47214 19.7006L1.32411 15.376L1.32021 15.374C1.28592 15.3562 1.25718 15.3293 1.23714 15.2963C1.2171 15.2632 1.20653 15.2253 1.20659 15.1867V7.16598L9.47214 11.4761V19.7006ZM10.0818 10.4332L1.86172 6.14681L5.76543 4.07502L14.0487 8.45827L10.0818 10.4332ZM19.3933 15.1761C19.3935 15.2155 19.3826 15.2541 19.3619 15.2875C19.3412 15.321 19.3115 15.3479 19.2762 15.3653L10.6788 19.7216V11.4838L14.6373 9.51306V11.5793C14.6373 11.9125 14.9074 12.1826 15.2406 12.1826C15.5738 12.1826 15.8439 11.9125 15.8439 11.5793V8.91232L19.3933 7.14522V15.1761Z" fill="#637381"/>
</g>
<defs>
<clipPath id="clip0_4_3365">
<rect width="20.6" height="20.6" fill="white" transform="translate(0 0.603745)"/>
</clipPath>
</defs>
</svg>
