<svg width="22" height="22" viewBox="0 0 22 22" fill="none" xmlns="http://www.w3.org/2000/svg">
<path d="M15.8125 1.83333H14.6666V0.916665C14.6666 0.410666 14.2569 0 13.75 0C13.2431 0 12.8333 0.410666 12.8333 0.916665V1.83333H5.49999V0.916665C5.49999 0.410666 5.09024 0 4.58332 0C4.07641 0 3.66666 0.410666 3.66666 0.916665V1.83333H2.52083C1.13025 1.83333 0 2.96358 0 4.35416V14.6666C0 16.1828 1.23383 17.4166 2.74999 17.4166H7.33332C7.84023 17.4166 8.24998 17.006 8.24998 16.5C8.24998 15.994 7.84023 15.5833 7.33332 15.5833H2.74999C2.244 15.5833 1.83333 15.1717 1.83333 14.6666V7.33332H16.5C16.5 7.83932 16.9097 8.24998 17.4166 8.24998C17.9235 8.24998 18.3333 7.83932 18.3333 7.33332V4.35416C18.3333 2.96358 17.2031 1.83333 15.8125 1.83333Z" fill="#637381"/>
<path opacity="0.48" d="M16.0416 10.0833C12.7563 10.0833 10.0833 12.7563 10.0833 16.0417C10.0833 19.327 12.7563 22 16.0416 22C19.3269 22 21.9999 19.327 21.9999 16.0417C21.9999 12.7563 19.3269 10.0833 16.0416 10.0833ZM18.7971 15.0379L15.818 18.4754C15.6511 18.6679 15.4119 18.7816 15.158 18.7917C15.147 18.7917 15.136 18.7917 15.125 18.7917C14.882 18.7917 14.6492 18.6954 14.4769 18.5231L12.8727 16.9189C12.5143 16.5605 12.5143 15.9812 12.8727 15.6227C13.2311 15.2643 13.8105 15.2643 14.1689 15.6227L15.0773 16.5312L17.4111 13.838C17.7429 13.4548 18.3223 13.4154 18.7045 13.7454C19.0868 14.0763 19.128 14.6557 18.7971 15.0379Z" fill="#637381"/>
</svg>
