<svg width="59" height="58" viewBox="0 0 59 58" fill="none" xmlns="http://www.w3.org/2000/svg">
<g opacity="0.48">
<circle cx="29.5" cy="29" r="26.6" stroke="#919EAB" stroke-opacity="0.16" stroke-width="4"/>
<path d="M2.90002 29C2.90002 43.6908 14.8093 55.6 29.5 55.6C44.1908 55.6 56.1 43.6908 56.1 29C56.1 14.3092 44.1908 2.39999 29.5 2.39999" stroke="#1FB81C" stroke-width="4" stroke-linecap="round" stroke-linejoin="round"/>
</g>
<path d="M35.9004 34H23.9004V32H35.9004V34ZM35.9004 30H23.9004V28H35.9004V30ZM35.9004 26H23.9004V24H35.9004V26ZM20.9004 39L22.4004 37.5L23.9004 39L25.4004 37.5L26.9004 39L28.4004 37.5L29.9004 39L31.4004 37.5L32.9004 39L34.4004 37.5L35.9004 39L37.4004 37.5L38.9004 39V19L37.4004 20.5L35.9004 19L34.4004 20.5L32.9004 19L31.4004 20.5L29.9004 19L28.4004 20.5L26.9004 19L25.4004 20.5L23.9004 19L22.4004 20.5L20.9004 19V39Z" fill="#1FB81C"/>
</svg>
