<svg width="48" height="49" viewBox="0 0 48 49" fill="none" xmlns="http://www.w3.org/2000/svg">
<path d="M47.9986 24.1111C47.9986 37.3715 37.253 48.1123 23.9998 48.1123H13.7719V41.684H23.9998C33.691 41.684 41.5679 33.8023 41.5679 24.1111C41.5679 14.4223 33.691 6.54064 23.9998 6.54064C14.311 6.54064 6.42694 14.4223 6.42694 24.1111V48.1123H2.81738C1.26432 48.1123 0.000976562 46.8513 0.000976562 45.2959V24.1111C0.000976562 10.8602 10.7442 0.112305 23.9998 0.112305C30.6205 0.112305 36.6261 2.7981 40.9647 7.14619C45.3104 11.4872 47.9986 17.4857 47.9986 24.1111Z" fill="#F317FF"/>
<path d="M13.772 32.321V24.1117C13.772 18.4765 18.3552 13.8838 23.9998 13.8838C29.7063 13.8838 34.3322 18.5857 34.2182 24.3159C34.109 29.9131 29.4189 34.3395 23.8217 34.3395H15.7905C14.6767 34.3419 13.772 33.4371 13.772 32.321Z" fill="#FFD401"/>
</svg>
