<svg width="61" height="26" viewBox="0 0 61 26" fill="none" xmlns="http://www.w3.org/2000/svg">
<path d="M59.8893 15.1816L57.9158 18.3027C57.4577 19.0272 56.3607 18.8802 56.1094 18.0607L55.0388 14.5686C54.9097 14.1473 54.5207 13.8597 54.08 13.8597H53.6296C53.1917 13.8597 52.8044 13.5755 52.673 13.1577L51.6723 9.97506C51.4767 9.35299 50.7487 9.08013 50.1924 9.42036L48.6607 10.3572C48.3073 10.5733 47.8575 10.5499 47.5284 10.2983L46.4187 9.44999C45.9353 9.08039 45.2367 9.22311 44.937 9.75272L43.9767 11.4492C43.5148 12.2655 42.285 12.0573 42.1174 11.1345L41.3522 6.92296C41.3357 6.83194 41.3066 6.74364 41.2659 6.66058L39.7759 3.62307C39.559 3.18095 39.0532 2.96172 38.5823 3.10572L36.3705 3.78209C35.8955 3.92732 35.3859 3.70305 35.1721 3.25478L34.2708 1.36484C33.896 0.579062 32.7668 0.61123 32.4374 1.41706L31.7695 3.05086C31.5652 3.55063 30.9456 3.72533 30.5103 3.40588V3.40588C30.1109 3.11271 29.5452 3.23266 29.2991 3.66271L28.5327 5.00184C28.1178 5.72689 27.0502 5.65646 26.7341 4.88319L26.0852 3.29568C25.72 2.40229 24.4272 2.48994 24.1859 3.42444L23.2079 7.21262C23.0936 7.65539 22.6942 7.96475 22.237 7.96475H21.5708C21.1 7.96475 20.6926 8.29223 20.5914 8.752L18.552 18.0178C18.5279 18.1269 18.4859 18.2312 18.4275 18.3265L15.3981 23.2672C15.0372 23.8556 14.2037 23.9121 13.7668 23.3777L12.9194 22.3412C12.5013 21.8299 11.7117 21.8553 11.3274 22.3925L10.8213 23.0999C10.379 23.7182 9.43636 23.6387 9.10389 22.955L9.02454 22.7918C8.77088 22.2701 8.12887 22.0719 7.62522 22.3596L6.72203 22.8756C6.4593 23.0257 6.14284 23.0492 5.86085 22.9394L4.33126 22.3441C3.9683 22.2029 3.55637 22.2845 3.27477 22.5536L0.844727 24.8755" stroke="#23C55E" stroke-width="0.440631"/>
</svg>
