<svg width="61" height="27" viewBox="0 0 61 27" fill="none" xmlns="http://www.w3.org/2000/svg">
<path d="M36.5906 4.43616L37.5686 8.22434C37.6829 8.66711 38.0822 8.97647 38.5395 8.97647H39.2057C39.6765 8.97647 40.0839 9.30395 40.1851 9.76372L42.2245 19.0296C42.2485 19.1386 42.2906 19.243 42.349 19.3382L45.3784 24.2789C45.7392 24.8673 46.5728 24.9238 47.0097 24.3894L47.8571 23.3529C48.2752 22.8416 49.0648 22.867 49.4491 23.4042L49.9551 24.1116C50.3975 24.73 51.3401 24.6504 51.6726 23.9667L51.752 23.8035C52.0056 23.2819 52.6476 23.0836 53.1513 23.3713L54.0545 23.8873C54.3172 24.0374 54.6337 24.0609 54.9156 23.9511L56.4452 23.3558C56.8082 23.2146 57.2201 23.2962 57.5017 23.5653L59.9318 25.8872H0.887238V16.1933L2.86071 19.3144C3.31881 20.0389 4.41583 19.8919 4.66708 19.0724L5.73768 15.5803C5.86683 15.159 6.25583 14.8714 6.69645 14.8714H7.14685C7.58482 14.8714 7.97212 14.5872 8.10349 14.1694L9.10423 10.9868C9.29983 10.3647 10.0278 10.0918 10.5841 10.4321L12.1158 11.3689C12.4692 11.585 12.919 11.5616 13.2481 11.31L14.3578 10.4617C14.8412 10.0921 15.5398 10.2348 15.8395 10.7644L16.7997 12.4609C17.2617 13.2772 18.4915 13.0691 18.6591 12.1463L19.4243 7.93468C19.4408 7.84366 19.4699 7.75536 19.5106 7.6723L21.0006 4.63479C21.2175 4.19267 21.7232 3.97344 22.1942 4.11744L24.406 4.79381C24.8809 4.93904 25.3906 4.71477 25.6044 4.2665L26.5057 2.37656C26.8805 1.59078 28.0097 1.62295 28.3391 2.42878L29.007 4.06258C29.2113 4.56235 29.8309 4.73705 30.2662 4.41759C30.6656 4.12443 31.2313 4.24437 31.4774 4.67443L32.2438 6.01356C32.6587 6.73861 33.7263 6.66818 34.0424 5.89491L34.6913 4.30739C35.0565 3.41401 36.3493 3.50166 36.5906 4.43616Z" fill="url(#paint0_linear_4_3855)"/>
<path d="M0.887236 16.1933L2.86071 19.3144C3.31881 20.0389 4.41583 19.8919 4.66708 19.0724L5.73768 15.5803C5.86683 15.159 6.25583 14.8714 6.69645 14.8714H7.14686C7.58482 14.8714 7.97212 14.5872 8.10349 14.1694L9.10423 10.9868C9.29983 10.3647 10.0278 10.0918 10.5841 10.4321L12.1158 11.3689C12.4692 11.585 12.919 11.5616 13.2481 11.31L14.3578 10.4617C14.8412 10.0921 15.5398 10.2348 15.8395 10.7644L16.7997 12.4609C17.2617 13.2772 18.4915 13.0691 18.6591 12.1463L19.4243 7.93468C19.4408 7.84366 19.4699 7.75536 19.5106 7.6723L21.0006 4.63479C21.2175 4.19267 21.7232 3.97344 22.1942 4.11744L24.406 4.79381C24.8809 4.93904 25.3906 4.71477 25.6044 4.2665L26.5057 2.37656C26.8805 1.59078 28.0097 1.62295 28.3391 2.42878L29.007 4.06258C29.2113 4.56235 29.8309 4.73705 30.2662 4.4176V4.4176C30.6656 4.12443 31.2313 4.24437 31.4774 4.67443L32.2438 6.01356C32.6587 6.73861 33.7263 6.66818 34.0424 5.89491L34.6913 4.30739C35.0565 3.41401 36.3493 3.50166 36.5906 4.43616L37.5686 8.22434C37.6829 8.66711 38.0822 8.97647 38.5395 8.97647H39.2057C39.6765 8.97647 40.0839 9.30395 40.1851 9.76372L42.2245 19.0296C42.2485 19.1386 42.2906 19.243 42.349 19.3382L45.3784 24.2789C45.7392 24.8673 46.5728 24.9238 47.0097 24.3894L47.8571 23.3529C48.2752 22.8416 49.0648 22.867 49.4491 23.4042L49.9551 24.1116C50.3975 24.73 51.3401 24.6504 51.6726 23.9667L51.752 23.8035C52.0056 23.2819 52.6476 23.0836 53.1513 23.3713L54.0545 23.8873C54.3172 24.0374 54.6337 24.0609 54.9156 23.9511L56.4452 23.3558C56.8082 23.2146 57.2201 23.2962 57.5017 23.5653L59.9318 25.8872" stroke="#9042FB" stroke-width="0.440631"/>
<defs>
<linearGradient id="paint0_linear_4_3855" x1="30.4095" y1="-4.07573" x2="29.0876" y2="22.3621" gradientUnits="userSpaceOnUse">
<stop stop-color="#EDE1FE"/>
<stop offset="1" stop-color="#EDE1FE" stop-opacity="0.05"/>
</linearGradient>
</defs>
</svg>
