<svg width="60" height="27" viewBox="0 0 60 27" fill="none" xmlns="http://www.w3.org/2000/svg">
<path d="M23.6569 4.43616L22.6789 8.22434C22.5646 8.66711 22.1652 8.97647 21.7079 8.97647H21.0418C20.571 8.97647 20.1636 9.30395 20.0624 9.76372L18.0229 19.0296C17.9989 19.1386 17.9568 19.243 17.8984 19.3382L14.869 24.2789C14.5082 24.8673 13.6746 24.9238 13.2377 24.3894L12.3903 23.3529C11.9723 22.8416 11.1826 22.867 10.7983 23.4042L10.2923 24.1116C9.84996 24.73 8.9073 24.6504 8.57484 23.9667L8.49548 23.8035C8.24182 23.2819 7.59982 23.0836 7.09617 23.3713L6.19298 23.8873C5.93025 24.0374 5.61378 24.0609 5.3318 23.9511L3.80221 23.3558C3.43925 23.2146 3.02732 23.2962 2.74572 23.5653L0.315674 25.8872H59.3602V16.1933L57.3867 19.3144C56.9286 20.0389 55.8316 19.8919 55.5804 19.0724L54.5098 15.5803C54.3806 15.159 53.9916 14.8714 53.551 14.8714H53.1006C52.6626 14.8714 52.2753 14.5872 52.1439 14.1694L51.1432 10.9868C50.9476 10.3647 50.2197 10.0918 49.6634 10.4321L48.1316 11.3689C47.7783 11.585 47.3284 11.5616 46.9994 11.31L45.8897 10.4617C45.4062 10.0921 44.7077 10.2348 44.4079 10.7644L43.4477 12.4609C42.9857 13.2772 41.756 13.0691 41.5883 12.1463L40.8232 7.93468C40.8066 7.84366 40.7776 7.75536 40.7368 7.6723L39.2469 4.63479C39.03 4.19267 38.5242 3.97344 38.0533 4.11744L35.8414 4.79381C35.3665 4.93904 34.8568 4.71477 34.643 4.2665L33.7417 2.37656C33.367 1.59078 32.2377 1.62295 31.9083 2.42878L31.2404 4.06258C31.0362 4.56235 30.4166 4.73705 29.9813 4.41759C29.5818 4.12443 29.0161 4.24437 28.77 4.67443L28.0037 6.01356C27.5887 6.73861 26.5211 6.66818 26.205 5.89491L25.5561 4.30739C25.1909 3.41401 23.8981 3.50166 23.6569 4.43616Z" fill="url(#paint0_linear_4_3842)"/>
<path d="M59.3602 16.1933L57.3867 19.3144C56.9286 20.0389 55.8316 19.8919 55.5804 19.0724L54.5098 15.5803C54.3806 15.159 53.9916 14.8714 53.551 14.8714H53.1006C52.6626 14.8714 52.2753 14.5872 52.1439 14.1694L51.1432 10.9868C50.9476 10.3647 50.2197 10.0918 49.6634 10.4321L48.1316 11.3689C47.7783 11.585 47.3284 11.5616 46.9994 11.31L45.8897 10.4617C45.4062 10.0921 44.7077 10.2348 44.4079 10.7644L43.4477 12.4609C42.9857 13.2772 41.756 13.0691 41.5883 12.1463L40.8232 7.93468C40.8066 7.84366 40.7776 7.75536 40.7368 7.6723L39.2469 4.63479C39.03 4.19267 38.5242 3.97344 38.0533 4.11744L35.8414 4.79381C35.3665 4.93904 34.8568 4.71477 34.643 4.2665L33.7417 2.37656C33.367 1.59078 32.2377 1.62295 31.9083 2.42878L31.2405 4.06258C31.0362 4.56235 30.4166 4.73705 29.9813 4.4176V4.4176C29.5818 4.12443 29.0161 4.24437 28.77 4.67443L28.0037 6.01356C27.5887 6.73861 26.5211 6.66818 26.205 5.89491L25.5561 4.30739C25.1909 3.41401 23.8981 3.50166 23.6569 4.43616L22.6789 8.22434C22.5646 8.66711 22.1652 8.97647 21.7079 8.97647H21.0418C20.571 8.97647 20.1636 9.30395 20.0624 9.76372L18.0229 19.0296C17.9989 19.1386 17.9568 19.243 17.8984 19.3382L14.869 24.2789C14.5082 24.8673 13.6746 24.9238 13.2377 24.3894L12.3903 23.3529C11.9723 22.8416 11.1826 22.867 10.7983 23.4042L10.2923 24.1116C9.84996 24.73 8.9073 24.6504 8.57484 23.9667L8.49548 23.8035C8.24182 23.2819 7.59982 23.0836 7.09617 23.3713L6.19298 23.8873C5.93025 24.0374 5.61378 24.0609 5.3318 23.9511L3.80221 23.3558C3.43925 23.2146 3.02732 23.2962 2.74572 23.5653L0.315674 25.8872" stroke="#1C60E8" stroke-width="0.440631"/>
<defs>
<linearGradient id="paint0_linear_4_3842" x1="29.8379" y1="-4.07573" x2="31.1598" y2="22.3621" gradientUnits="userSpaceOnUse">
<stop stop-color="#1C60E8" stop-opacity="0.37"/>
<stop offset="1" stop-color="#1C60E8" stop-opacity="0"/>
</linearGradient>
</defs>
</svg>
